<?xml version="1.0" encoding="UTF-8" standalone="no"?>
<!-- Created with Inkscape (http://www.inkscape.org/) -->
<svg
   xmlns:dc="http://purl.org/dc/elements/1.1/"
   xmlns:cc="http://creativecommons.org/ns#"
   xmlns:rdf="http://www.w3.org/1999/02/22-rdf-syntax-ns#"
   xmlns:svg="http://www.w3.org/2000/svg"
   xmlns="http://www.w3.org/2000/svg"
   xmlns:xlink="http://www.w3.org/1999/xlink"
   xmlns:sodipodi="http://sodipodi.sourceforge.net/DTD/sodipodi-0.dtd"
   xmlns:inkscape="http://www.inkscape.org/namespaces/inkscape"
   width="128"
   height="128"
   id="svg2"
   sodipodi:version="0.32"
   inkscape:version="0.45+devel"
   version="1.0"
   sodipodi:docname="ceni-candidate-wip2.svg"
   inkscape:output_extension="org.inkscape.output.svg.inkscape">
  <defs
     id="defs4">
    <linearGradient
       inkscape:collect="always"
       id="linearGradient3362">
      <stop
         style="stop-color:#dbdbe5;stop-opacity:1"
         offset="0"
         id="stop3364" />
      <stop
         style="stop-color:#a5a5bb;stop-opacity:1"
         offset="1"
         id="stop3366" />
    </linearGradient>
    <inkscape:perspective
       sodipodi:type="inkscape:persp3d"
       inkscape:vp_x="0 : 64 : 1"
       inkscape:vp_y="0 : 1000 : 0"
       inkscape:vp_z="128 : 64 : 1"
       inkscape:persp3d-origin="64 : 64 : 1"
       id="perspective2576" />
    <linearGradient
       id="linearGradient3587"
       inkscape:collect="always">
      <stop
         id="stop3589"
         offset="0"
         style="stop-color:#e6e6e6;stop-opacity:1" />
      <stop
         style="stop-color:#d5d5dc;stop-opacity:1"
         offset="0.38057229"
         id="stop3591" />
      <stop
         id="stop3593"
         offset="1"
         style="stop-color:#a5a5bb;stop-opacity:1" />
    </linearGradient>
    <inkscape:perspective
       sodipodi:type="inkscape:persp3d"
       inkscape:vp_x="0 : 64 : 1"
       inkscape:vp_y="0 : 1000 : 0"
       inkscape:vp_z="128 : 64 : 1"
       inkscape:persp3d-origin="64 : 64 : 1"
       id="perspective2777" />
    <linearGradient
       id="linearGradient7311"
       inkscape:collect="always">
      <stop
         id="stop7313"
         offset="0"
         style="stop-color:#52525c;stop-opacity:1" />
      <stop
         style="stop-color:#595962;stop-opacity:1;"
         offset="0.53854418"
         id="stop7317" />
      <stop
         id="stop7319"
         offset="0.59462124"
         style="stop-color:#eaeaeb;stop-opacity:1;" />
      <stop
         id="stop7315"
         offset="1"
         style="stop-color:#fefefe;stop-opacity:1" />
    </linearGradient>
    <linearGradient
       id="linearGradient7301"
       inkscape:collect="always">
      <stop
         id="stop7303"
         offset="0"
         style="stop-color:#52525c;stop-opacity:1" />
      <stop
         style="stop-color:#5b5b65;stop-opacity:1;"
         offset="0.43821698"
         id="stop7307" />
      <stop
         id="stop7309"
         offset="0.54455566"
         style="stop-color:#f4f4f4;stop-opacity:1;" />
      <stop
         id="stop7305"
         offset="1"
         style="stop-color:#fefefe;stop-opacity:1" />
    </linearGradient>
    <linearGradient
       inkscape:collect="always"
       id="linearGradient7283">
      <stop
         style="stop-color:#000000;stop-opacity:1;"
         offset="0"
         id="stop7285" />
      <stop
         style="stop-color:#000000;stop-opacity:0;"
         offset="1"
         id="stop7287" />
    </linearGradient>
    <linearGradient
       inkscape:collect="always"
       id="linearGradient6970">
      <stop
         style="stop-color:#52525c;stop-opacity:1"
         offset="0"
         id="stop6972" />
      <stop
         style="stop-color:#fefefe;stop-opacity:1"
         offset="1"
         id="stop6974" />
    </linearGradient>
    <inkscape:perspective
       sodipodi:type="inkscape:persp3d"
       inkscape:vp_x="0 : 526.18109 : 1"
       inkscape:vp_y="0 : 1000 : 0"
       inkscape:vp_z="744.09448 : 526.18109 : 1"
       inkscape:persp3d-origin="372.04724 : 526.18109 : 1"
       id="perspective10" />
    <mask
       id="mask7296"
       maskUnits="userSpaceOnUse">
      <g
         id="g7298"
         transform="translate(-514.5863,-206.91001)">
        <g
           id="g7300"
           transform="translate(80.51637,30.885255)">
          <path
             style="opacity:1;fill:url(#radialGradient7316);fill-opacity:1;stroke:none;stroke-width:2;stroke-linecap:round;stroke-linejoin:round;stroke-miterlimit:4;stroke-dashoffset:1.08779998;stroke-opacity:1"
             d="M -184.42232,-32.47243 C -217.54751,-32.47243 -248.42232,-0.097625 -248.42232,33.02757 C -248.42232,66.15276 -217.04751,97.02757 -183.92232,97.02757 C -153.6332,97.02757 -128.58571,70.81131 -124.51607,41.68382 L -159.54732,36.65257 C -161.172,48.6137 -171.47739,57.62132 -183.92232,57.62132 C -197.49395,57.62132 -206.01607,46.0992 -206.01607,32.52757 C -206.01607,18.955936 -199.99395,12.43382 -186.42232,12.43382 C -179.6365,12.433819 -176.50103,10.198864 -172.04732,14.65257 L -176.8745,25.979749 C -178.93037,28.035619 -179.11822,29.285529 -178.55411,30.595278 C -178.04554,31.776057 -177.03338,33.12132 -174.34438,33.12132 L -130.39107,33.12132 C -126.54518,33.12132 -123.93208,30.466941 -123.93208,26.871189 L -124.00095,-17.206829 C -124.00095,-19.687584 -124.90346,-21.050058 -126.18242,-21.556444 C -127.49674,-22.076829 -129.21563,-21.679122 -131.28951,-19.605244 L -141.48482,-19.40993 C -152.34417,-30.269281 -167.85972,-32.47243 -184.42232,-32.47243 z"
             id="path7302"
             sodipodi:nodetypes="cssccsssccsccccsccc" />
          <path
             sodipodi:nodetypes="ccccc"
             style="fill:url(#linearGradient7318);fill-opacity:1;fill-rule:evenodd;stroke:none;stroke-width:1px;stroke-linecap:butt;stroke-linejoin:miter;stroke-opacity:1;filter:url(#filter3438)"
             d="M -161.5,34.5 C -162,37 -180,54 -180,54 L -132.5,80 L -112,38.5 L -161.5,34.5 z"
             id="path7304" />
          <path
             sodipodi:nodetypes="ccccc"
             id="path7306"
             d="M -161.5,34.5 C -162,37 -181.27817,54.389087 -181.27817,54.389087 L -151.62742,97.591883 L -112,38.5 L -161.5,34.5 z"
             style="fill:url(#linearGradient7320);fill-opacity:1;fill-rule:evenodd;stroke:none;stroke-width:1px;stroke-linecap:butt;stroke-linejoin:miter;stroke-opacity:1;filter:url(#filter3438)" />
          <path
             style="fill:url(#linearGradient7322);fill-opacity:1;fill-rule:evenodd;stroke:none;stroke-width:1px;stroke-linecap:butt;stroke-linejoin:miter;stroke-opacity:1;filter:url(#filter3438)"
             d="M -161.5,34.5 C -162,37 -181.27817,54.389087 -181.27817,54.389087 L -151.62742,97.591883 L -112,38.5 L -161.5,34.5 z"
             id="path7308"
             sodipodi:nodetypes="ccccc" />
        </g>
        <rect
           y="69.75"
           x="-119"
           height="71.75"
           width="83.5"
           id="rect7310"
           style="opacity:1;fill:url(#linearGradient7324);fill-opacity:1;stroke:none;stroke-width:1;stroke-linecap:round;stroke-linejoin:round;stroke-miterlimit:4;stroke-dasharray:none;stroke-dashoffset:1.08779998;stroke-opacity:1;filter:url(#filter3363)" />
        <path
           sodipodi:nodetypes="ccccc"
           id="path7312"
           d="M -159.5,68.25 L -39.138259,55.983708 L -93.453327,162.55286 L -197.79465,128.96507 L -159.5,68.25 z"
           style="fill:url(#linearGradient7326);fill-opacity:1;stroke:none;stroke-width:1;stroke-linecap:round;stroke-linejoin:round;stroke-miterlimit:4;stroke-dashoffset:1.08779998;stroke-opacity:1;filter:url(#filter3363)"
           transform="matrix(0.6393762,0.7688941,-0.7688941,0.6393762,37.597642,128.08723)" />
        <path
           transform="matrix(0.6393762,0.7688941,-0.7688941,0.6393762,37.597642,128.08723)"
           style="fill:url(#linearGradient7328);fill-opacity:1;stroke:none;stroke-width:1;stroke-linecap:round;stroke-linejoin:round;stroke-miterlimit:4;stroke-dashoffset:1.08779998;stroke-opacity:1;filter:url(#filter3363)"
           d="M -159.5,68.25 L -39.138259,55.983708 L -93.453327,162.55286 L -197.79465,128.96507 L -159.5,68.25 z"
           id="path7314"
           sodipodi:nodetypes="ccccc" />
      </g>
    </mask>
    <linearGradient
       y2="112.70422"
       x2="-136.51074"
       y1="99.979607"
       x1="-61.802711"
       gradientTransform="translate(-40.5,-1.5)"
       gradientUnits="userSpaceOnUse"
       id="linearGradient7328"
       xlink:href="#linearGradient3342"
       inkscape:collect="always" />
    <linearGradient
       y2="92.603989"
       x2="-138.0043"
       y1="137.13324"
       x1="-83.593941"
       gradientTransform="translate(-40.5,-1.5)"
       gradientUnits="userSpaceOnUse"
       id="linearGradient7326"
       xlink:href="#linearGradient3342"
       inkscape:collect="always" />
    <linearGradient
       y2="86.125"
       x2="-163"
       y1="105.625"
       x1="-73"
       gradientUnits="userSpaceOnUse"
       id="linearGradient7324"
       xlink:href="#linearGradient3342"
       inkscape:collect="always" />
    <linearGradient
       y2="72.881729"
       x2="-158.92462"
       y1="44.753052"
       x1="-83.012932"
       gradientUnits="userSpaceOnUse"
       id="linearGradient7322"
       xlink:href="#linearGradient3326"
       inkscape:collect="always" />
    <linearGradient
       y2="72.881729"
       x2="-158.92462"
       y1="39.803303"
       x1="-132.51041"
       gradientUnits="userSpaceOnUse"
       id="linearGradient7320"
       xlink:href="#linearGradient3326"
       inkscape:collect="always" />
    <linearGradient
       y2="57.25"
       x2="-152.26776"
       y1="37.68198"
       x1="-151.43935"
       gradientUnits="userSpaceOnUse"
       id="linearGradient7318"
       xlink:href="#linearGradient3326"
       inkscape:collect="always" />
    <radialGradient
       r="59.99512"
       fy="59.708473"
       fx="-113.14772"
       cy="118.60459"
       cx="-112.17241"
       gradientTransform="matrix(0.6484284,0.1017206,-3.1257154e-2,0.1992521,-4.56257,53.15916)"
       gradientUnits="userSpaceOnUse"
       id="radialGradient7316"
       xlink:href="#linearGradient3825"
       inkscape:collect="always" />
    <linearGradient
       y2="112.70422"
       x2="-136.51074"
       y1="99.979607"
       x1="-61.802711"
       gradientTransform="translate(-40.5,-1.5)"
       gradientUnits="userSpaceOnUse"
       id="linearGradient7250"
       xlink:href="#linearGradient3342"
       inkscape:collect="always" />
    <linearGradient
       y2="92.603989"
       x2="-138.0043"
       y1="137.13324"
       x1="-83.593941"
       gradientTransform="translate(-40.5,-1.5)"
       gradientUnits="userSpaceOnUse"
       id="linearGradient7248"
       xlink:href="#linearGradient3342"
       inkscape:collect="always" />
    <linearGradient
       y2="86.125"
       x2="-163"
       y1="105.625"
       x1="-73"
       gradientUnits="userSpaceOnUse"
       id="linearGradient7246"
       xlink:href="#linearGradient3342"
       inkscape:collect="always" />
    <linearGradient
       y2="72.881729"
       x2="-158.92462"
       y1="44.753052"
       x1="-83.012932"
       gradientUnits="userSpaceOnUse"
       id="linearGradient7244"
       xlink:href="#linearGradient3326"
       inkscape:collect="always" />
    <linearGradient
       y2="72.881729"
       x2="-158.92462"
       y1="39.803303"
       x1="-132.51041"
       gradientUnits="userSpaceOnUse"
       id="linearGradient7242"
       xlink:href="#linearGradient3326"
       inkscape:collect="always" />
    <linearGradient
       y2="57.25"
       x2="-152.26776"
       y1="37.68198"
       x1="-151.43935"
       gradientUnits="userSpaceOnUse"
       id="linearGradient7240"
       xlink:href="#linearGradient3326"
       inkscape:collect="always" />
    <radialGradient
       r="59.99512"
       fy="59.708473"
       fx="-113.14772"
       cy="118.60459"
       cx="-112.17241"
       gradientTransform="matrix(0.6484284,0.1017206,-3.1257154e-2,0.1992521,-4.56257,53.15916)"
       gradientUnits="userSpaceOnUse"
       id="radialGradient7238"
       xlink:href="#linearGradient3825"
       inkscape:collect="always" />
    <linearGradient
       y2="15.343517"
       x2="206.47243"
       y1="77.373238"
       x1="206.47243"
       gradientTransform="translate(-819.08887,-206.90625)"
       gradientUnits="userSpaceOnUse"
       id="linearGradient7202"
       xlink:href="#linearGradient3295"
       inkscape:collect="always" />
    <linearGradient
       y2="63.426777"
       x2="208.59375"
       y1="130.40625"
       x1="208.59375"
       gradientTransform="translate(-819.08887,-206.90625)"
       gradientUnits="userSpaceOnUse"
       id="linearGradient7200"
       xlink:href="#linearGradient3295"
       inkscape:collect="always" />
    <linearGradient
       y2="80.172485"
       x2="75.09375"
       y1="4.5317035"
       x1="75.09375"
       gradientTransform="translate(-682.08465,-206.90428)"
       gradientUnits="userSpaceOnUse"
       id="linearGradient7198"
       xlink:href="#linearGradient3260"
       inkscape:collect="always" />
    <linearGradient
       y2="73.898682"
       x2="75.09375"
       y1="4.5317035"
       x1="75.09375"
       gradientTransform="translate(-682.08887,-206.90625)"
       gradientUnits="userSpaceOnUse"
       id="linearGradient7196"
       xlink:href="#linearGradient3202"
       inkscape:collect="always" />
    <radialGradient
       r="56"
       fy="68.231934"
       fx="64.689766"
       cy="27.418272"
       cx="99.726295"
       gradientTransform="matrix(0.693735,5.8671246e-2,-3.6242796e-2,0.4285387,-648.14948,-180.02535)"
       gradientUnits="userSpaceOnUse"
       id="radialGradient7194"
       xlink:href="#linearGradient3528"
       inkscape:collect="always" />
    <radialGradient
       r="56"
       fy="116.90625"
       fx="67.09375"
       cy="116.90625"
       cx="67.09375"
       gradientTransform="translate(-682.08887,-206.90625)"
       gradientUnits="userSpaceOnUse"
       id="radialGradient7192"
       xlink:href="#XMLID_4_"
       inkscape:collect="always" />
    <linearGradient
       y2="14.444496"
       x2="125.30366"
       y1="12.569496"
       x1="120.0625"
       spreadMethod="reflect"
       gradientUnits="userSpaceOnUse"
       id="linearGradient7190"
       xlink:href="#linearGradient3344"
       inkscape:collect="always" />
    <linearGradient
       y2="14.444496"
       x2="125.30366"
       y1="12.569496"
       x1="120.0625"
       spreadMethod="reflect"
       gradientTransform="translate(-682.08887,-206.90625)"
       gradientUnits="userSpaceOnUse"
       id="linearGradient7188"
       xlink:href="#linearGradient3260"
       inkscape:collect="always" />
    <radialGradient
       r="59.995121"
       fy="7.4108429"
       fx="64.088867"
       cy="7.4108429"
       cx="64.088867"
       gradientTransform="matrix(0.3093869,0,0,0.4779247,-637.82826,-203.04183)"
       gradientUnits="userSpaceOnUse"
       id="radialGradient7186"
       xlink:href="#linearGradient3260"
       inkscape:collect="always" />
    <radialGradient
       r="59.995121"
       fy="26.862719"
       fx="74.871155"
       cy="48.228905"
       cx="72.684891"
       gradientTransform="matrix(0.982366,1.671718e-2,-3.5801148e-3,0.2103843,-700.65231,-176.42846)"
       gradientUnits="userSpaceOnUse"
       id="radialGradient7184"
       xlink:href="#linearGradient3449"
       inkscape:collect="always" />
    <radialGradient
       r="59.995121"
       fy="66.906013"
       fx="-10.165252"
       cy="66.906013"
       cx="-10.165252"
       gradientTransform="matrix(0.4582893,-2.1035589e-8,4.5903973e-8,1.0000813,-661.64092,-206.91145)"
       gradientUnits="userSpaceOnUse"
       id="radialGradient7182"
       xlink:href="#linearGradient3449"
       inkscape:collect="always" />
    <radialGradient
       r="59.995121"
       fy="80.404922"
       fx="167.67001"
       cy="80.404922"
       cx="167.67001"
       gradientTransform="matrix(0.2676699,0.521376,-0.7037472,0.3612977,-573.09501,-242.96923)"
       gradientUnits="userSpaceOnUse"
       id="radialGradient7180"
       xlink:href="#linearGradient3449"
       inkscape:collect="always" />
    <radialGradient
       r="59.99512"
       fy="126.69183"
       fx="66.01458"
       cy="126.69183"
       cx="66.01458"
       gradientTransform="matrix(0.675025,0,0,0.3583625,-662.56149,-165.9016)"
       gradientUnits="userSpaceOnUse"
       id="radialGradient7178"
       xlink:href="#linearGradient3751"
       inkscape:collect="always" />
    <linearGradient
       y2="123.90625"
       x2="8.083992"
       y1="33.40625"
       x1="147.09375"
       gradientTransform="translate(-682.08887,-206.90625)"
       gradientUnits="userSpaceOnUse"
       id="linearGradient7176"
       xlink:href="#XMLID_4_"
       inkscape:collect="always" />
    <filter
       id="filter2826"
       inkscape:collect="always">
      <feGaussianBlur
         id="feGaussianBlur2828"
         stdDeviation="2.40001"
         inkscape:collect="always" />
    </filter>
    <radialGradient
       gradientTransform="translate(145.71379,-238.21429)"
       gradientUnits="userSpaceOnUse"
       r="125.1714"
       cy="124"
       cx="59.5107"
       id="XMLID_23_">
      <stop
         id="stop9"
         style="stop-color:#F0F0F0"
         offset="0.1775" />
      <stop
         id="stop11"
         style="stop-color:#A5A5BB"
         offset="0.5325" />
    </radialGradient>
    <linearGradient
       gradientTransform="translate(145.71379,-238.21429)"
       y2="120.2141"
       x2="60.0005"
       y1="12.8452"
       x1="60.0005"
       gradientUnits="userSpaceOnUse"
       id="XMLID_24_">
      <stop
         id="stop16"
         style="stop-color:#FFFFFF"
         offset="0" />
      <stop
         id="stop18"
         style="stop-color:#ffffff;stop-opacity:0;"
         offset="1" />
    </linearGradient>
    <linearGradient
       gradientTransform="translate(145.71379,-238.21429)"
       y2="26.0005"
       x2="60.0015"
       y1="94"
       x1="60.0015"
       gradientUnits="userSpaceOnUse"
       id="XMLID_25_">
      <stop
         id="stop23"
         style="stop-color:#FFFFFF"
         offset="0.2959" />
      <stop
         id="stop25"
         style="stop-color:#4A4A55"
         offset="1" />
    </linearGradient>
    <linearGradient
       gradientTransform="translate(145.71379,-238.21429)"
       y2="28.0005"
       x2="60.0015"
       y1="92"
       x1="60.0015"
       gradientUnits="userSpaceOnUse"
       id="XMLID_26_">
      <stop
         id="stop30"
         style="stop-color:#E9E9F0"
         offset="0.1953" />
      <stop
         id="stop32"
         style="stop-color:#DADAE2"
         offset="0.2597" />
      <stop
         id="stop34"
         style="stop-color:#B1B1BB"
         offset="0.461" />
      <stop
         id="stop36"
         style="stop-color:#93939F"
         offset="0.6437" />
      <stop
         id="stop38"
         style="stop-color:#81818E"
         offset="0.7999" />
      <stop
         id="stop40"
         style="stop-color:#7A7A88"
         offset="0.9112" />
      <stop
         id="stop42"
         style="stop-color:#696975"
         offset="1" />
    </linearGradient>
    <linearGradient
       gradientTransform="translate(145.71379,-238.21429)"
       y2="34.0005"
       x2="60.0015"
       y1="86"
       x1="60.0015"
       gradientUnits="userSpaceOnUse"
       id="XMLID_27_">
      <stop
         id="stop47"
         style="stop-color:#BBBBBB"
         offset="0" />
      <stop
         id="stop49"
         style="stop-color:#555555"
         offset="1" />
    </linearGradient>
    <linearGradient
       gradientTransform="translate(-682.08887,-206.90625)"
       gradientUnits="userSpaceOnUse"
       y2="123.90625"
       x2="8.083992"
       y1="33.40625"
       x1="147.09375"
       id="linearGradient3516"
       xlink:href="#XMLID_4_"
       inkscape:collect="always" />
    <radialGradient
       gradientUnits="userSpaceOnUse"
       gradientTransform="matrix(0.9792,0,0,0.9725,133.0002,20.8762)"
       r="55.148"
       cy="-0.2148"
       cx="48"
       id="XMLID_4_">
      <stop
         id="stop3082"
         style="stop-color:#72D13D"
         offset="0" />
      <stop
         id="stop3090"
         style="stop-color:#00b400;stop-opacity:1;"
         offset="1" />
    </radialGradient>
    <radialGradient
       gradientUnits="userSpaceOnUse"
       gradientTransform="matrix(0.675025,0,0,0.3583625,-662.56149,-165.9016)"
       r="59.99512"
       fy="126.69183"
       fx="66.01458"
       cy="126.69183"
       cx="66.01458"
       id="radialGradient3757"
       xlink:href="#linearGradient3751"
       inkscape:collect="always" />
    <linearGradient
       id="linearGradient3751"
       inkscape:collect="always">
      <stop
         id="stop3753"
         offset="0"
         style="stop-color:#53be2c;stop-opacity:1;" />
      <stop
         id="stop3755"
         offset="1"
         style="stop-color:#53be2c;stop-opacity:0;" />
    </linearGradient>
    <radialGradient
       r="59.995121"
       fy="80.404922"
       fx="167.67001"
       cy="80.404922"
       cx="167.67001"
       gradientTransform="matrix(0.2676699,0.521376,-0.7037472,0.3612977,-573.09501,-242.96923)"
       gradientUnits="userSpaceOnUse"
       id="radialGradient3658"
       xlink:href="#linearGradient3449"
       inkscape:collect="always" />
    <linearGradient
       id="linearGradient3449">
      <stop
         style="stop-color:#000000;stop-opacity:0.67266184;"
         offset="0"
         id="stop3451" />
      <stop
         style="stop-color:#000000;stop-opacity:0;"
         offset="1"
         id="stop3453" />
    </linearGradient>
    <radialGradient
       gradientUnits="userSpaceOnUse"
       gradientTransform="matrix(0.4582893,-2.1035589e-8,4.5903973e-8,1.0000813,-661.64092,-206.91145)"
       r="59.995121"
       fy="66.906013"
       fx="-10.165252"
       cy="66.906013"
       cx="-10.165252"
       id="radialGradient3654"
       xlink:href="#linearGradient3449"
       inkscape:collect="always" />
    <radialGradient
       r="59.995121"
       fy="26.862719"
       fx="74.871155"
       cy="48.228905"
       cx="72.684891"
       gradientTransform="matrix(0.982366,1.671718e-2,-3.5801148e-3,0.2103843,-700.65231,-176.42846)"
       gradientUnits="userSpaceOnUse"
       id="radialGradient3744"
       xlink:href="#linearGradient3449"
       inkscape:collect="always" />
    <radialGradient
       gradientUnits="userSpaceOnUse"
       gradientTransform="matrix(0.3093869,0,0,0.4779247,-637.82826,-203.04183)"
       r="59.995121"
       fy="7.4108429"
       fx="64.088867"
       cy="7.4108429"
       cx="64.088867"
       id="radialGradient3767"
       xlink:href="#linearGradient3260"
       inkscape:collect="always" />
    <linearGradient
       inkscape:collect="always"
       id="linearGradient3260">
      <stop
         style="stop-color:#ffffff;stop-opacity:1;"
         offset="0"
         id="stop3262" />
      <stop
         style="stop-color:#ffffff;stop-opacity:0;"
         offset="1"
         id="stop3264" />
    </linearGradient>
    <linearGradient
       gradientTransform="translate(-682.08887,-206.90625)"
       spreadMethod="reflect"
       gradientUnits="userSpaceOnUse"
       y2="14.444496"
       x2="125.30366"
       y1="12.569496"
       x1="120.0625"
       id="linearGradient3676"
       xlink:href="#linearGradient3260"
       inkscape:collect="always" />
    <linearGradient
       y2="14.444496"
       x2="125.30366"
       y1="12.569496"
       x1="120.0625"
       spreadMethod="reflect"
       gradientUnits="userSpaceOnUse"
       id="linearGradient3771"
       xlink:href="#linearGradient3344"
       inkscape:collect="always" />
    <linearGradient
       id="linearGradient3344">
      <stop
         style="stop-color:#baff63;stop-opacity:1;"
         offset="0"
         id="stop3346" />
      <stop
         style="stop-color:#ffffff;stop-opacity:0;"
         offset="1"
         id="stop3348" />
    </linearGradient>
    <radialGradient
       gradientTransform="translate(-682.08887,-206.90625)"
       gradientUnits="userSpaceOnUse"
       r="56"
       fy="116.90625"
       fx="67.09375"
       cy="116.90625"
       cx="67.09375"
       id="radialGradient3524"
       xlink:href="#XMLID_4_"
       inkscape:collect="always" />
    <radialGradient
       gradientTransform="matrix(0.693735,5.8671246e-2,-3.6242796e-2,0.4285387,-648.14948,-180.02535)"
       gradientUnits="userSpaceOnUse"
       r="56"
       fy="68.231934"
       fx="64.689766"
       cy="27.418272"
       cx="99.726295"
       id="radialGradient3535"
       xlink:href="#linearGradient3528"
       inkscape:collect="always" />
    <linearGradient
       id="linearGradient3528"
       inkscape:collect="always">
      <stop
         id="stop3530"
         offset="0"
         style="stop-color:#62c734;stop-opacity:1;" />
      <stop
         id="stop3532"
         offset="1"
         style="stop-color:#62c734;stop-opacity:0;" />
    </linearGradient>
    <linearGradient
       gradientTransform="translate(-682.08887,-206.90625)"
       gradientUnits="userSpaceOnUse"
       y2="73.898682"
       x2="75.09375"
       y1="4.5317035"
       x1="75.09375"
       id="linearGradient3548"
       xlink:href="#linearGradient3202"
       inkscape:collect="always" />
    <linearGradient
       id="linearGradient3202">
      <stop
         id="stop3204"
         offset="0"
         style="stop-color:#cbff9c;stop-opacity:1;" />
      <stop
         id="stop3206"
         offset="1"
         style="stop-color:#65c171;stop-opacity:0" />
    </linearGradient>
    <linearGradient
       y2="80.172485"
       x2="75.09375"
       y1="4.5317035"
       x1="75.09375"
       gradientTransform="translate(-682.08465,-206.90428)"
       gradientUnits="userSpaceOnUse"
       id="linearGradient3581"
       xlink:href="#linearGradient3260"
       inkscape:collect="always" />
    <linearGradient
       gradientTransform="translate(-819.08887,-206.90625)"
       gradientUnits="userSpaceOnUse"
       y2="63.426777"
       x2="208.59375"
       y1="130.40625"
       x1="208.59375"
       id="linearGradient3613"
       xlink:href="#linearGradient3295"
       inkscape:collect="always" />
    <linearGradient
       id="linearGradient3295">
      <stop
         id="stop3297"
         offset="0"
         style="stop-color:#baff63;stop-opacity:1;" />
      <stop
         id="stop3299"
         offset="1"
         style="stop-color:#ffffff;stop-opacity:0;" />
    </linearGradient>
    <linearGradient
       y2="15.343517"
       x2="206.47243"
       y1="77.373238"
       x1="206.47243"
       gradientTransform="translate(-819.08887,-206.90625)"
       gradientUnits="userSpaceOnUse"
       id="linearGradient3462"
       xlink:href="#linearGradient3295"
       inkscape:collect="always" />
    <radialGradient
       r="59.99512"
       fy="59.708473"
       fx="-113.14772"
       cy="118.60459"
       cx="-112.17241"
       gradientTransform="matrix(0.6484284,0.1017206,-3.1257154e-2,0.1992521,-4.56257,53.15916)"
       gradientUnits="userSpaceOnUse"
       id="radialGradient7103"
       xlink:href="#linearGradient3825"
       inkscape:collect="always" />
    <linearGradient
       id="linearGradient3825">
      <stop
         id="stop3827"
         offset="0"
         style="stop-color:#ffffff;stop-opacity:0;" />
      <stop
         style="stop-color:#ffffff;stop-opacity:0.18705036;"
         offset="0.5"
         id="stop3833" />
      <stop
         id="stop3829"
         offset="1"
         style="stop-color:#ffffff;stop-opacity:1;" />
    </linearGradient>
    <linearGradient
       y2="57.25"
       x2="-152.26776"
       y1="37.68198"
       x1="-151.43935"
       gradientUnits="userSpaceOnUse"
       id="linearGradient7105"
       xlink:href="#linearGradient3326"
       inkscape:collect="always" />
    <linearGradient
       id="linearGradient3326"
       inkscape:collect="always">
      <stop
         id="stop3328"
         offset="0"
         style="stop-color:#000000;stop-opacity:1;" />
      <stop
         id="stop3330"
         offset="1"
         style="stop-color:#000000;stop-opacity:0;" />
    </linearGradient>
    <filter
       id="filter3438"
       inkscape:collect="always">
      <feGaussianBlur
         id="feGaussianBlur3440"
         stdDeviation="1.3342697"
         inkscape:collect="always" />
    </filter>
    <linearGradient
       y2="72.881729"
       x2="-158.92462"
       y1="39.803303"
       x1="-132.51041"
       gradientUnits="userSpaceOnUse"
       id="linearGradient7107"
       xlink:href="#linearGradient3326"
       inkscape:collect="always" />
    <linearGradient
       y2="72.881729"
       x2="-158.92462"
       y1="44.753052"
       x1="-83.012932"
       gradientUnits="userSpaceOnUse"
       id="linearGradient7109"
       xlink:href="#linearGradient3326"
       inkscape:collect="always" />
    <linearGradient
       y2="86.125"
       x2="-163"
       y1="105.625"
       x1="-73"
       gradientUnits="userSpaceOnUse"
       id="linearGradient7111"
       xlink:href="#linearGradient3342"
       inkscape:collect="always" />
    <linearGradient
       id="linearGradient3342"
       inkscape:collect="always">
      <stop
         id="stop3344"
         offset="0"
         style="stop-color:#000000;stop-opacity:1;" />
      <stop
         id="stop3347"
         offset="1"
         style="stop-color:#000000;stop-opacity:0;" />
    </linearGradient>
    <filter
       id="filter3363"
       height="1.2042203"
       y="-0.10211017"
       width="1.1754827"
       x="-0.087741371"
       inkscape:collect="always">
      <feGaussianBlur
         id="feGaussianBlur3365"
         stdDeviation="3.0526685"
         inkscape:collect="always" />
    </filter>
    <linearGradient
       y2="92.603989"
       x2="-138.0043"
       y1="137.13324"
       x1="-83.593941"
       gradientTransform="translate(-40.5,-1.5)"
       gradientUnits="userSpaceOnUse"
       id="linearGradient7113"
       xlink:href="#linearGradient3342"
       inkscape:collect="always" />
    <linearGradient
       y2="112.70422"
       x2="-136.51074"
       y1="99.979607"
       x1="-61.802711"
       gradientTransform="translate(-40.5,-1.5)"
       gradientUnits="userSpaceOnUse"
       id="linearGradient7115"
       xlink:href="#linearGradient3342"
       inkscape:collect="always" />
    <inkscape:perspective
       id="perspective5849"
       inkscape:persp3d-origin="64 : 64 : 1"
       inkscape:vp_z="128 : 64 : 1"
       inkscape:vp_y="0 : 1000 : 0"
       inkscape:vp_x="0 : 64 : 1"
       sodipodi:type="inkscape:persp3d" />
    <linearGradient
       inkscape:collect="always"
       xlink:href="#XMLID_24_"
       id="linearGradient6110"
       gradientUnits="userSpaceOnUse"
       gradientTransform="matrix(0.9999851,-3.6386616e-3,3.6386918e-3,0.9999934,3.2967921,4.1100117)"
       x1="60.0005"
       y1="12.8452"
       x2="60.0005"
       y2="120.2141" />
    <linearGradient
       inkscape:collect="always"
       xlink:href="#XMLID_27_"
       id="linearGradient6152"
       gradientUnits="userSpaceOnUse"
       gradientTransform="matrix(0.9999851,-3.6386616e-3,3.6386918e-3,0.9999934,3.2967921,4.1100117)"
       x1="60.0015"
       y1="86"
       x2="60.0015"
       y2="34.0005" />
    <linearGradient
       inkscape:collect="always"
       xlink:href="#XMLID_26_"
       id="linearGradient6154"
       gradientUnits="userSpaceOnUse"
       gradientTransform="matrix(0.9999934,-3.6386918e-3,3.6386918e-3,0.9999934,3.2957921,4.1100154)"
       x1="60.0015"
       y1="92"
       x2="60.0015"
       y2="28.0005" />
    <linearGradient
       inkscape:collect="always"
       xlink:href="#XMLID_25_"
       id="linearGradient6156"
       gradientUnits="userSpaceOnUse"
       gradientTransform="matrix(0.9999851,-3.6386616e-3,3.6386918e-3,0.9999934,3.2967921,4.1100117)"
       x1="60.0015"
       y1="94"
       x2="60.0015"
       y2="26.0005" />
    <radialGradient
       inkscape:collect="always"
       xlink:href="#XMLID_23_"
       id="radialGradient6158"
       gradientUnits="userSpaceOnUse"
       gradientTransform="matrix(0.9999851,-3.6386616e-3,3.6386918e-3,0.9999934,3.2967921,4.1100117)"
       cx="59.5107"
       cy="124"
       r="125.1714" />
    <linearGradient
       inkscape:collect="always"
       xlink:href="#linearGradient6970"
       id="linearGradient7257"
       gradientUnits="userSpaceOnUse"
       x1="92"
       y1="84"
       x2="92"
       y2="52" />
    <linearGradient
       inkscape:collect="always"
       xlink:href="#linearGradient7301"
       id="linearGradient7263"
       gradientUnits="userSpaceOnUse"
       x1="92"
       y1="48"
       x2="92"
       y2="84"
       gradientTransform="matrix(0.9724594,0,0,0.9724594,0.8737649,102.69365)" />
    <linearGradient
       inkscape:collect="always"
       xlink:href="#linearGradient7283"
       id="linearGradient7289"
       x1="83"
       y1="26"
       x2="83"
       y2="97"
       gradientUnits="userSpaceOnUse"
       gradientTransform="matrix(0.9724594,0,0,0.9724594,0.8737649,102.69365)" />
    <linearGradient
       inkscape:collect="always"
       xlink:href="#linearGradient7311"
       id="linearGradient7291"
       gradientUnits="userSpaceOnUse"
       x1="92"
       y1="84"
       x2="92"
       y2="52"
       gradientTransform="matrix(0.9724594,0,0,0.9724594,0.8737649,102.69365)" />
    <linearGradient
       inkscape:collect="always"
       xlink:href="#linearGradient7301"
       id="linearGradient2783"
       gradientUnits="userSpaceOnUse"
       gradientTransform="matrix(0.9724594,0,0,0.9724594,-133.12623,2.6936473)"
       x1="92"
       y1="48"
       x2="92"
       y2="84" />
    <filter
       inkscape:collect="always"
       id="filter3563">
      <feGaussianBlur
         inkscape:collect="always"
         stdDeviation="0.55498588"
         id="feGaussianBlur3565" />
    </filter>
    <linearGradient
       inkscape:collect="always"
       xlink:href="#linearGradient3587"
       id="linearGradient3573"
       x1="-58.196358"
       y1="65.076759"
       x2="-58.196358"
       y2="42.815849"
       gradientUnits="userSpaceOnUse" />
    <clipPath
       clipPathUnits="userSpaceOnUse"
       id="clipPath3581">
      <path
         style="fill:#800000;fill-rule:evenodd;stroke:none;stroke-width:1px;stroke-linecap:butt;stroke-linejoin:miter;stroke-opacity:1"
         d="M -104.08477,60.170219 L -104.08477,100.17022 L -0.08477,100.17022 L -0.08477,64.170219 C -0.08477,64.170219 -79.260736,65.577944 -104.08477,60.170219 z"
         id="path3583" />
    </clipPath>
    <linearGradient
       inkscape:collect="always"
       xlink:href="#linearGradient3587"
       id="linearGradient2580"
       gradientUnits="userSpaceOnUse"
       x1="-56.08477"
       y1="88.170219"
       x2="-54.986057"
       y2="60.170219" />
    <radialGradient
       inkscape:collect="always"
       xlink:href="#linearGradient3362"
       id="radialGradient3368"
       cx="-31.546324"
       cy="87.03656"
       fx="-31.546324"
       fy="87.03656"
       r="45.056008"
       gradientTransform="matrix(1.0302867,6.0963174e-3,-1.6090331e-3,0.2718791,1.7587441,53.059635)"
       gradientUnits="userSpaceOnUse" />
  </defs>
  <sodipodi:namedview
     id="base"
     pagecolor="#ffffff"
     bordercolor="#666666"
     borderopacity="1.0"
     gridtolerance="10000"
     guidetolerance="10"
     objecttolerance="10"
     inkscape:pageopacity="0.0"
     inkscape:pageshadow="2"
     inkscape:zoom="3.640625"
     inkscape:cx="25.499285"
     inkscape:cy="20.051502"
     inkscape:document-units="px"
     inkscape:current-layer="layer1"
     showgrid="false"
     showguides="true"
     inkscape:guide-bbox="true"
     inkscape:window-width="1400"
     inkscape:window-height="990"
     inkscape:window-x="0"
     inkscape:window-y="0">
    <inkscape:grid
       type="xygrid"
       id="grid2383"
       empspacing="4"
       visible="true"
       enabled="true" />
  </sodipodi:namedview>
  <metadata
     id="metadata7">
    <rdf:RDF>
      <cc:Work
         rdf:about="">
        <dc:format>image/svg+xml</dc:format>
        <dc:type
           rdf:resource="http://purl.org/dc/dcmitype/StillImage" />
      </cc:Work>
    </rdf:RDF>
  </metadata>
  <g
     inkscape:label="Layer 1"
     inkscape:groupmode="layer"
     id="layer1">
    <path
       id="path6132"
       d="M 245.02458,1.3999036 L 201.61833,2.8686536 L 201.64958,3.7749036 L 169.61833,4.8686536 L 171.71208,66.274904 L 169.64958,135.36865 L 213.05583,136.68115 L 213.08708,135.6499 L 247.05583,136.68115 L 249.68083,48.368654 L 246.61833,48.274904 L 245.02458,1.3999036 z"
       style="opacity:0.57878789;fill:#37c8ab;fill-opacity:1;stroke:none;stroke-width:2.5;stroke-linecap:round;stroke-miterlimit:4;stroke-dasharray:none;stroke-opacity:1" />
    <g
       id="g7265">
      <path
         transform="matrix(0.9999934,-3.6386918e-3,3.6386918e-3,0.9999934,11.285822,1.0809221)"
         id="path6"
         d="M 46,4 L 45.59375,16.4375 C 41.465784,16.989501 37.508219,18.06275 33.78125,19.59375 L 27.1875,9.03125 L 16.8125,15.03125 L 22.65625,26.03125 C 19.420278,28.53425 16.535229,31.41925 14.03125,34.65625 L 3.03125,28.8125 L -2.96875,39.1875 L 7.59375,45.78125 C 6.0617627,49.50825 4.9884954,53.46575 4.4375,57.59375 L -8,58 L -8,70 L 4.4375,70.40625 C 4.9894952,74.534249 6.0627627,78.49175 7.59375,82.21875 L -2.96875,88.8125 L 3.03125,99.1875 L 14.03125,93.34375 C 16.534229,96.579751 19.419277,99.46575 22.65625,101.96875 L 16.8125,112.96875 L 27.1875,118.96875 L 33.78125,108.40625 C 37.50822,109.93725 41.465784,111.0115 45.59375,111.5625 L 46,124 L 58,124 L 58.40625,111.5625 C 58.426493,111.55979 58.448515,111.56523 58.46875,111.5625 L 59,93.15625 C 56.753346,93.695308 54.409594,94 52,94 C 35.458136,94 22,80.542 22,64 C 22,47.458 35.458137,34 52,34 C 54.453921,34 56.840681,34.316538 59.125,34.875 L 58.5,16.4375 C 58.469654,16.433383 58.436615,16.44156 58.40625,16.4375 L 58,4 L 46,4 z"
         style="filter:url(#filter2826)" />
      <path
         sodipodi:nodetypes="cccccccccccccccccccccccccccssccc"
         id="path13"
         d="M 57.296434,3.9135224 L 56.935443,16.352419 C 52.809513,16.919436 48.85588,18.007079 45.134506,19.55163 L 38.502366,9.013192 L 28.149267,15.050904 L 34.033004,26.029568 C 30.806161,28.544326 27.931629,31.439805 25.439445,34.685894 L 14.418254,28.882209 L 8.4560446,39.278972 L 19.042467,45.834245 C 17.524052,49.566795 16.465192,53.528174 15.92922,57.658151 L 3.4932808,58.109655 L 3.5369451,70.109575 L 15.975841,70.470566 C 16.542853,74.59653 17.630514,78.550099 19.175052,82.271504 L 8.6366147,88.903644 L 14.674326,99.256743 L 25.65299,93.373006 C 28.167728,96.599878 31.063258,99.47536 34.309317,101.96657 L 28.505631,112.98776 L 38.902395,118.94997 L 45.457668,108.36354 C 49.190184,109.88097 53.15163,110.94082 57.281574,111.47679 L 57.733077,123.91273 L 69.732998,123.86907 L 70.623831,93.865624 L 63.623877,93.891095 C 47.082123,93.951286 33.575106,80.542345 33.514915,64.000454 C 33.454725,47.458564 46.863802,33.951683 63.405556,33.891492 C 66.405032,33.880578 66.912511,34.030403 70.407352,34.372445 L 69.296355,3.8698581 L 57.296434,3.9135224 z"
         style="fill:url(#radialGradient6158)" />
      <path
         sodipodi:nodetypes="ccssccccsssccccssscccccccc"
         style="fill:url(#linearGradient6110)"
         id="path20"
         d="M 58.267611,4.9099952 C 58.218598,6.5551844 57.927364,16.38431 57.927364,16.38431 C 57.91314,16.872365 57.547619,17.278697 57.063863,17.345458 C 53.076861,17.892969 49.1887,18.946124 45.506271,20.475533 C 45.054954,20.663177 44.534351,20.49707 44.275849,20.084008 C 44.275849,20.084008 39.054587,11.764951 38.17952,10.372126 C 36.890254,11.122822 30.77023,14.686115 29.480964,15.436811 C 30.261235,16.885982 34.923736,25.545073 34.923736,25.545073 C 35.004277,25.693781 35.042866,25.855642 35.043444,26.014641 C 35.04454,26.315639 34.909619,26.612132 34.658332,26.808048 C 31.500293,29.269555 28.661703,32.128903 26.223263,35.304796 C 25.926672,35.691878 25.393095,35.80782 24.962268,35.580387 C 24.962268,35.580387 16.268546,30.98099 14.814748,30.211275 C 14.07346,31.505981 10.554829,37.651825 9.8135414,38.94653 C 11.212686,39.811445 19.56945,44.972072 19.56945,44.972072 C 19.87113,45.158975 20.04331,45.483351 20.044536,45.820348 C 20.044998,45.947348 20.021468,46.076434 19.97092,46.200619 C 18.467366,49.895114 17.442547,53.791869 16.925062,57.780778 C 16.862824,58.265008 16.458166,58.633483 15.970231,58.651259 C 15.970231,58.651259 6.1435713,59.015017 4.4987924,59.075002 C 4.5024092,60.068996 4.5071213,61.363987 4.5103307,62.245981 C 13.396708,64.002658 22.853563,65.341257 32.652812,66.238606 C 32.589086,65.214831 32.515681,64.00409 32.515681,64.00409 C 32.453485,46.911203 52.309131,32.931862 69.401877,32.869667 L 68.331457,4.8723757 C 66.841483,4.8787973 59.759589,4.9045663 58.267611,4.9099952 z" />
      <path
         id="path27"
         d="M 63.391001,29.891519 C 44.614279,29.959842 29.446618,45.238133 29.514941,64.015009 C 29.583268,82.792885 44.861711,97.959392 63.638432,97.891068 C 66.019627,97.882404 68.331923,97.621009 70.573271,97.14708 L 70.78927,87.802482 C 68.516466,88.494254 66.100599,88.88205 63.605684,88.891128 C 49.820888,88.941287 38.565041,77.76717 38.514882,63.982261 C 38.464722,50.197352 49.638954,38.941618 63.423749,38.891459 C 65.953071,38.882256 68.403505,39.26534 70.708931,39.958708 L 70.36232,30.584907 C 68.108367,30.123285 65.782728,29.882816 63.391001,29.891519 z"
         style="fill:url(#linearGradient6156)" />
      <path
         id="path44"
         d="M 63.398278,31.891505 C 45.75339,31.95571 31.450723,46.362848 31.514928,64.007732 C 31.579133,81.652615 45.986267,95.955286 63.631154,95.891082 C 66.024843,95.882372 68.353867,95.593382 70.597016,95.08448 L 70.78927,87.802482 C 68.516448,88.494254 66.100619,88.88205 63.605684,88.891128 C 49.820768,88.941287 38.565041,77.76717 38.514882,63.982261 C 38.464722,50.197352 49.638834,38.941618 63.423749,38.891459 C 65.953091,38.882255 68.403487,39.26534 70.708931,39.958708 L 70.432324,32.647166 C 68.167336,32.146074 65.813004,31.882719 63.398278,31.891505 z"
         style="fill:url(#linearGradient6154)" />
      <path
         id="path51"
         d="M 63.42011,37.891466 C 49.084323,37.94363 37.462724,49.649994 37.514888,63.9859 C 37.567057,78.322805 49.273536,89.943285 63.609322,89.891121 C 66.09092,89.882092 68.489509,89.525618 70.761886,88.865089 L 70.816654,86.739875 C 68.538934,87.469368 66.117656,87.881981 63.602045,87.891135 C 50.36924,87.939285 39.563026,77.211535 39.514875,63.978622 C 39.466724,50.74571 50.194584,39.939603 63.427388,39.891452 C 65.977459,39.882173 68.433841,40.289197 70.744046,41.021087 L 70.673815,38.896328 C 68.368239,38.234597 65.936634,37.882309 63.42011,37.891466 z"
         style="fill:url(#linearGradient6152)" />
      <path
         style="fill:#ffffff"
         id="path53"
         d="M 18.873914,82.474851 L 8.6442962,88.896116 L 9.0719642,89.629564 L 19.17986,83.284743 C 19.068894,83.019145 18.978887,82.74247 18.873914,82.474851 z" />
      <path
         id="path55"
         d="M 57.296434,3.9135224 L 56.935443,16.352419 C 52.809513,16.919436 48.85588,18.007079 45.134506,19.55163 L 38.502366,9.013192 L 28.149267,15.050904 L 28.558357,15.830671 L 38.506005,10.013185 L 45.138145,20.551623 C 48.859515,19.006072 52.813148,17.918429 56.939082,17.352412 L 57.300073,4.9135158 L 69.299994,4.8698515 L 69.751497,17.305791 C 69.781877,17.309741 69.814885,17.301444 69.845247,17.30545 L 69.810358,16.305571 C 69.790113,16.302912 69.768111,16.308431 69.747859,16.305798 L 69.296355,3.8698581 L 57.296434,3.9135224 z"
         style="fill:#ffffff" />
      <path
         style="fill:#ffffff"
         id="path59"
         d="M 33.951388,102.67413 L 28.497906,112.98204 L 28.906754,113.21555 L 34.323493,102.97777 C 34.196142,102.88124 34.077743,102.77167 33.951388,102.67413 z" />
      <path
         id="path61"
         d="M 19.55126,65.426273 C 19.548148,65.670283 19.521848,65.931384 19.522739,66.176382 C 19.611021,90.438224 39.420913,110.10427 63.682551,110.01599 C 65.913089,110.00787 68.102119,109.82175 70.243188,109.49212 L 70.269094,108.02326 C 68.118789,108.35595 65.918033,108.5391 63.677207,108.54725 C 39.661564,108.63464 20.032303,89.347681 19.55126,65.426273 z"
         style="opacity:0.5;fill:#ffffff" />
      <path
         style="fill:#ffffff"
         id="path67"
         d="M 14.42952,29.873674 L 25.431683,35.694679 C 27.922871,32.449593 30.818254,29.533038 34.046094,27.017277 L 33.672574,26.324631 C 30.597481,28.770837 27.821692,31.575956 25.428041,34.693686 L 14.425878,28.872681 L 8.4637807,39.286444 L 8.8897385,39.549896 L 14.42952,29.873674 z" />
      <path
         style="fill:#ffffff"
         id="path71"
         d="M 3.4979201,59.109644 L 15.935224,58.649386 C 16.471196,54.519408 17.528763,50.553534 19.046179,46.820988 L 18.742496,46.633092 C 17.394219,50.129021 16.429631,53.814555 15.931586,57.649393 L 3.4942814,58.109651 L 3.5369457,70.109575 L 3.5369457,70.109575 L 3.4979201,59.109644 z" />
    </g>
    <path
       style="font-size:76.56871796px;font-style:normal;font-variant:normal;font-weight:bold;font-stretch:normal;fill-opacity:1;font-family:Sidux;-inkscape-font-specification:Sidux Bold"
       d="M -90.567087,68.691973 L -62.302463,68.691973 C -61.754159,68.691988 -61.479988,68.442741 -61.479947,67.944231 L -61.554721,62.111849 C -61.604611,58.771962 -62.07818,56.005322 -62.97543,53.811919 C -64.221703,50.771138 -66.140904,48.428217 -68.733039,46.78315 C -71.424938,44.98861 -75.338114,44.141171 -80.472578,44.240829 C -84.261152,44.340568 -87.700759,45.038459 -90.791409,46.334505 C -94.081479,47.680476 -96.648722,50.073246 -98.493146,53.512823 C -100.13818,56.653364 -100.93577,60.516691 -100.88592,65.102814 C -100.83607,69.190482 -99.98863,72.779637 -98.343597,75.87029 C -97.246915,77.914123 -95.103392,79.957947 -91.913021,82.001769 C -89.66981,83.447403 -85.781558,84.170219 -80.248256,84.170219 L -63.573623,84.170219 C -62.526824,84.170219 -62.003406,83.896048 -62.003366,83.347704 L -62.003366,75.496419 C -62.003406,75.047784 -62.526824,74.823461 -63.573623,74.823452 L -83.538318,74.823452 C -84.635023,74.823461 -85.656935,74.673913 -86.604058,74.374807 C -89.794433,73.477528 -91.389613,71.832499 -91.389603,69.439714 C -91.389613,68.941235 -91.115442,68.691988 -90.567087,68.691973 M -90.567087,59.719076 C -91.26499,59.619402 -91.539161,59.370155 -91.389603,58.971335 C -89.943981,55.132958 -86.404676,53.163908 -80.771675,53.064178 C -74.291277,53.014359 -70.751972,54.98341 -70.153747,58.971335 C -70.10393,59.469854 -70.353177,59.719101 -70.901489,59.719076 L -90.567087,59.719076 M -49.255984,54.709209 C -49.255995,53.413154 -48.483329,52.765113 -46.937986,52.765081 L -41.554248,52.765081 C -39.261195,52.765113 -37.466617,53.188832 -36.17051,54.036242 C -34.724902,54.98341 -34.002086,56.653364 -34.00206,59.046109 L -34.00206,82.899059 C -34.002086,83.7465 -33.727914,84.170219 -33.179544,84.170219 L -25.477808,84.170219 C -24.929499,84.170219 -24.655328,83.7465 -24.655293,82.899059 L -24.655293,57.475852 C -24.655328,53.986422 -25.901562,50.94561 -28.394,48.353407 C -31.085897,45.611727 -34.201483,44.240869 -37.740767,44.240829 L -52.994691,44.240829 C -56.733401,44.240869 -58.602753,45.935748 -58.602752,49.325471 L -58.677526,82.824285 C -58.677527,83.721575 -58.104259,84.170219 -56.957721,84.170219 L -50.975789,84.170219 C -49.879112,84.170219 -49.330769,83.721575 -49.330758,82.824285 L -49.255984,54.709209 M -21.195443,82.824285 C -21.195444,83.721575 -20.946197,84.170219 -20.447701,84.170219 L -12.596417,84.170219 C -12.097933,84.170219 -11.848686,83.721575 -11.848675,82.824285 L -11.848675,45.437216 C -11.848686,44.639664 -12.097933,44.240869 -12.596417,44.240829 L -20.447701,44.240829 C -20.946197,44.240869 -21.195444,44.639664 -21.195443,45.437216 L -21.195443,82.824285 M -17.008091,38.557995 L -15.961253,38.557995 C -13.219544,38.55804 -11.848686,36.863162 -11.848675,33.473353 L -11.848675,30.033743 C -11.848686,29.535303 -12.097933,29.286057 -12.596417,29.286002"
       id="text2779"
       sodipodi:nodetypes="ccccsccccccccccccccsccscccccccsccccccccccccccccccccccccccccc" />
    <use
       x="0"
       y="0"
       xlink:href="#text2779"
       id="use3555"
       transform="translate(136.08477,-0.1702194)"
       width="128"
       height="128"
       style="fill:#000000;fill-opacity:1;stroke:#000000;stroke-width:2;stroke-miterlimit:4;stroke-dasharray:none;stroke-opacity:1;filter:url(#filter3563)" />
    <use
       style="fill:url(#linearGradient3573);fill-opacity:1;stroke:#a5a5bb;stroke-width:1;stroke-miterlimit:4;stroke-dasharray:none;stroke-opacity:1"
       height="128"
       width="128"
       transform="translate(136.08477,-0.1702194)"
       id="use3557"
       xlink:href="#text2779"
       y="0"
       x="0" />
    <use
       x="0"
       y="0"
       xlink:href="#text2779"
       id="use3577"
       transform="translate(136.08477,-0.1702194)"
       width="128"
       height="128"
       style="fill:url(#radialGradient3368);fill-opacity:1;stroke:#71717e;stroke-width:1;stroke-miterlimit:4;stroke-dasharray:none;stroke-opacity:1"
       clip-path="url(#clipPath3581)" />
  </g>
</svg>
