<?xml version="1.0" encoding="UTF-8" standalone="no"?>
<!-- Created with Inkscape (http://www.inkscape.org/) -->
<svg
   xmlns:svg="http://www.w3.org/2000/svg"
   xmlns="http://www.w3.org/2000/svg"
   xmlns:xlink="http://www.w3.org/1999/xlink"
   xmlns:inkscape="http://www.inkscape.org/namespaces/inkscape"
   version="1.0"
   width="128"
   height="128"
   id="svg2">
  <defs
     id="defs4">
    <linearGradient
       id="linearGradient39133">
      <stop
         id="stop39135"
         style="stop-color:#252525;stop-opacity:1"
         offset="0" />
      <stop
         id="stop39137"
         style="stop-color:#515151;stop-opacity:1"
         offset="0" />
      <stop
         id="stop39139"
         style="stop-color:#878787;stop-opacity:1"
         offset="0.28677997" />
      <stop
         id="stop39141"
         style="stop-color:#000000;stop-opacity:1"
         offset="0.92151743" />
      <stop
         id="stop39143"
         style="stop-color:#ffffff;stop-opacity:0.73786408"
         offset="1" />
    </linearGradient>
    <linearGradient
       id="linearGradient39119">
      <stop
         id="stop39121"
         style="stop-color:#ffffff;stop-opacity:0.82905984"
         offset="0" />
      <stop
         id="stop39123"
         style="stop-color:#ffffff;stop-opacity:0"
         offset="1" />
    </linearGradient>
    <linearGradient
       id="linearGradient39106">
      <stop
         id="stop39108"
         style="stop-color:#ffffff;stop-opacity:1"
         offset="0" />
      <stop
         id="stop39110"
         style="stop-color:#a8a8a8;stop-opacity:0"
         offset="1" />
    </linearGradient>
    <linearGradient
       id="linearGradient39094">
      <stop
         id="stop39096"
         style="stop-color:#000000;stop-opacity:1"
         offset="0" />
      <stop
         id="stop39098"
         style="stop-color:#333333;stop-opacity:1"
         offset="1" />
    </linearGradient>
    <linearGradient
       id="linearGradient39062">
      <stop
         id="stop39064"
         style="stop-color:#252525;stop-opacity:1"
         offset="0" />
      <stop
         id="stop39086"
         style="stop-color:#515151;stop-opacity:1"
         offset="0.21101321" />
      <stop
         id="stop39088"
         style="stop-color:#878787;stop-opacity:1"
         offset="0.75" />
      <stop
         id="stop39090"
         style="stop-color:#6c6c6c;stop-opacity:1"
         offset="0.875" />
      <stop
         id="stop39066"
         style="stop-color:#1e1e1e;stop-opacity:1"
         offset="1" />
    </linearGradient>
    <filter
       id="filter39153">
      <feGaussianBlur
         inkscape:collect="always"
         stdDeviation="2.28"
         id="feGaussianBlur39155" />
    </filter>
    <filter
       id="filter39159">
      <feGaussianBlur
         id="feGaussianBlur39161"
         stdDeviation="1.68"
         inkscape:collect="always" />
    </filter>
    <linearGradient
       x1="4"
       y1="40"
       x2="124"
       y2="60"
       id="linearGradient4485"
       xlink:href="#linearGradient39062"
       gradientUnits="userSpaceOnUse" />
    <radialGradient
       cx="75.999977"
       cy="-2.7730541"
       r="48"
       fx="55.266491"
       fy="-2.5338216"
       id="radialGradient4489"
       xlink:href="#linearGradient39119"
       gradientUnits="userSpaceOnUse"
       gradientTransform="matrix(0,0.8333332,-1.6666667,2.518705e-6,59.378243,-35.333302)" />
    <radialGradient
       cx="100.44444"
       cy="34.363636"
       r="32"
       fx="83.18"
       fy="34.228985"
       id="radialGradient4492"
       xlink:href="#linearGradient39106"
       gradientUnits="userSpaceOnUse"
       gradientTransform="matrix(3.1472435e-6,1.0227273,-0.875,-9.5061964e-8,94.067865,-4.7272712)" />
    <radialGradient
       cx="64.066589"
       cy="63.713329"
       r="60"
       fx="64.066589"
       fy="63.713329"
       id="radialGradient4495"
       xlink:href="#linearGradient39133"
       gradientUnits="userSpaceOnUse"
       gradientTransform="matrix(1.1333333,5.1768857e-8,5.2556881e-6,1.1666667,-8.6091298,-10.332226)" />
    <radialGradient
       cx="100.70589"
       cy="96"
       r="60"
       fx="158.07428"
       fy="95.718063"
       id="radialGradient4498"
       xlink:href="#linearGradient39094"
       gradientUnits="userSpaceOnUse"
       gradientTransform="matrix(2.7837903e-8,-1,1,-2.1864248e-6,-32.000004,164.7061)" />
    <linearGradient
       x1="60.001499"
       y1="86"
       x2="60.001499"
       y2="34.0005"
       id="XMLID_27_"
       gradientUnits="userSpaceOnUse"
       gradientTransform="translate(145.71379,-238.21429)">
      <stop
         id="stop47"
         style="stop-color:#bbbbbb;stop-opacity:1"
         offset="0" />
      <stop
         id="stop49"
         style="stop-color:#555555;stop-opacity:1"
         offset="1" />
    </linearGradient>
    <linearGradient
       x1="60.001499"
       y1="92"
       x2="60.001499"
       y2="28.0005"
       id="XMLID_26_"
       gradientUnits="userSpaceOnUse"
       gradientTransform="translate(145.71379,-238.21429)">
      <stop
         id="stop30"
         style="stop-color:#e9e9f0;stop-opacity:1"
         offset="0.1953" />
      <stop
         id="stop32"
         style="stop-color:#dadae2;stop-opacity:1"
         offset="0.2597" />
      <stop
         id="stop34"
         style="stop-color:#b1b1bb;stop-opacity:1"
         offset="0.461" />
      <stop
         id="stop36"
         style="stop-color:#93939f;stop-opacity:1"
         offset="0.6437" />
      <stop
         id="stop38"
         style="stop-color:#81818e;stop-opacity:1"
         offset="0.7999" />
      <stop
         id="stop40"
         style="stop-color:#7a7a88;stop-opacity:1"
         offset="0.91119999" />
      <stop
         id="stop42"
         style="stop-color:#696975;stop-opacity:1"
         offset="1" />
    </linearGradient>
    <linearGradient
       x1="60.001499"
       y1="94"
       x2="60.001499"
       y2="26.0005"
       id="XMLID_25_"
       gradientUnits="userSpaceOnUse"
       gradientTransform="translate(145.71379,-238.21429)">
      <stop
         id="stop23"
         style="stop-color:#ffffff;stop-opacity:1"
         offset="0.29589999" />
      <stop
         id="stop25"
         style="stop-color:#4a4a55;stop-opacity:1"
         offset="1" />
    </linearGradient>
    <filter
       id="filter2826">
      <feGaussianBlur
         id="feGaussianBlur2828"
         stdDeviation="2.40001"
         inkscape:collect="always" />
    </filter>
    <linearGradient
       x1="60.001499"
       y1="86"
       x2="60.001499"
       y2="34.0005"
       id="linearGradient51609"
       xlink:href="#XMLID_27_"
       gradientUnits="userSpaceOnUse"
       gradientTransform="matrix(0.9999851,-3.6386616e-3,3.6386918e-3,0.9999934,-16.136121,160.71011)" />
    <linearGradient
       x1="60.001499"
       y1="92"
       x2="60.001499"
       y2="28.0005"
       id="linearGradient51612"
       xlink:href="#XMLID_26_"
       gradientUnits="userSpaceOnUse"
       gradientTransform="matrix(0.9999934,-3.6386918e-3,3.6386918e-3,0.9999934,-16.137121,160.71012)" />
    <linearGradient
       x1="60.001499"
       y1="94"
       x2="60.001499"
       y2="26.0005"
       id="linearGradient51615"
       xlink:href="#XMLID_25_"
       gradientUnits="userSpaceOnUse"
       gradientTransform="matrix(0.9999851,-3.6386616e-3,3.6386918e-3,0.9999934,-16.136121,160.71011)" />
  </defs>
  <path
     d="M 29,4 C 15.147058,4 4,15.14706 4,29 L 4,99 C 4,112.85294 15.147058,124 29,124 L 99,124 C 112.85294,124 124,112.85294 124,99 L 124,29 C 124,15.14706 112.85294,4 99,4 L 29,4 z"
     id="path39151"
     style="fill:#000000;fill-opacity:1;stroke:none;filter:url(#filter39153)" />
  <path
     d="M 29,4 C 15.147058,4 4,15.14706 4,29 L 4,99 C 4,112.85294 15.147058,124 29,124 L 99,124 C 112.85294,124 124,112.85294 124,99 L 124,29 C 124,15.14706 112.85294,4 99,4 L 29,4 z"
     id="path39157"
     style="fill:#000000;fill-opacity:1;stroke:none;filter:url(#filter39159)" />
  <rect
     width="120"
     height="120"
     ry="25.00531"
     x="4"
     y="0"
     id="rect2573"
     style="fill:url(#radialGradient4498);fill-opacity:1;stroke:none" />
  <path
     d="M 29,0 C 15.147058,0 4,11.14706 4,25 L 4,95 C 4,108.85294 15.147058,120 29,120 L 99,120 C 112.85294,120 124,108.85294 124,95 L 124,25 C 124,11.14706 112.85294,0 99,0 L 29,0 z"
     id="path39127"
     style="opacity:0.20512821;fill:url(#radialGradient4495);fill-opacity:1;stroke:none" />
  <path
     d="M 44,56 L 84,56 L 96,108 C 76,115.27273 52,115.27273 32,108 L 44,56 z"
     id="path39102"
     style="opacity:0.53418801;fill:url(#radialGradient4492);fill-opacity:1;stroke:none" />
  <path
     d="M 25.339207,12 C 52,8 76,8 102.66079,12 C 107.83471,12 112,16.165286 112,21.339207 L 116,52 C 100,73.339207 28,73.339207 12,52 L 16,21.339207 C 16,16.165286 20.165286,12 25.339207,12 z"
     id="rect39116"
     style="opacity:0.92307691;fill:url(#radialGradient4489);fill-opacity:1;stroke:none" />
  <path
     d="M 29,0 C 15.147058,0 4,11.14706 4,25 L 4,95 C 4,108.85294 15.147058,120 29,120 L 99,120 C 112.85294,120 124,108.85294 124,95 L 124,25 C 124,11.14706 112.85294,0 99,0 L 29,0 z"
     id="path39147"
     style="opacity:0.20512821;fill:#000000;fill-opacity:1;stroke:none" />
  <path
     d="M 29,0 C 15.147058,0 4,11.147058 4,25 L 4,95 C 4,108.85294 15.147058,120 29,120 L 99,120 C 112.85294,120 124,108.85294 124,95 L 124,25 C 124,11.147058 112.85294,0 99,0 L 29,0 z M 29,4 L 99,4 C 110.70613,4 120,13.293869 120,25 L 120,95 C 120,106.70613 110.70613,116 99,116 L 29,116 C 17.293869,116 8,106.70613 8,95 L 8,25 C 8,13.293869 17.293869,4 29,4 z"
     id="rect39029"
     style="fill:url(#linearGradient4485);fill-opacity:1;stroke:none" />
  <path
     d="M 74.283249,13.1015 L 64.527425,13.166757 L 64.201144,23.281489 C 60.904852,23.740658 57.717269,24.618511 54.64109,25.891743 L 49.224815,17.310534 L 49.061673,17.082136 L 40.643606,22.008991 L 45.439947,30.91648 C 42.763764,32.994219 40.41844,35.362288 38.42489,37.964165 L 29.484773,33.233081 L 24.623175,41.716405 L 24.851572,41.846917 L 24.786316,41.944801 L 33.204383,47.13268 C 31.975034,50.187649 31.155585,53.360889 30.724643,56.627478 L 20.577282,57.051643 L 20.60991,66.774839 L 20.805679,66.774839 L 20.805679,67.003235 L 30.757271,67.329517 C 31.21436,70.499242 32.095852,73.639658 33.367525,76.693802 L 24.786316,82.07745 L 29.680542,90.495517 L 29.713169,90.495517 L 29.843682,90.723915 L 38.7838,85.927574 C 39.245773,86.513315 39.72956,87.103743 40.219439,87.656866 C 40.265585,87.709563 40.303497,87.767531 40.349953,87.820007 C 41.933748,89.60896 43.696957,91.277278 45.635716,92.779489 L 40.93726,101.68698 L 41.133028,101.8175 L 41.100401,101.88275 L 49.583725,106.74434 L 55,98 C 58.003986,99.193096 61.124632,100.02464 64.331657,100.44711 L 64.723194,110.56184 L 74.479017,110.52921 L 74.772671,100.41448 C 78.019559,99.965325 81.237692,99.106521 84.365353,97.804227 L 89.749001,106.38544 L 98.1997,101.45859 L 86.616697,79.956618 L 81.689842,82.827898 C 71.513931,88.752442 58.775546,86.453957 51.215133,77.998929 C 51.116657,77.888797 51.018183,77.784867 50.921479,77.672647 C 50.811065,77.541351 50.702592,77.414461 50.595198,77.281109 C 50.50596,77.172982 50.421768,77.064802 50.334172,76.954827 C 50.243065,76.837596 50.161956,76.714632 50.073147,76.595917 C 49.873606,76.329191 49.673694,76.054081 49.48584,75.780213 C 49.262513,75.454641 49.039911,75.136388 48.833277,74.801368 C 44.287297,67.430889 43.812383,57.869913 48.40911,49.840819 C 55.095257,38.16214 70.043893,34.084097 81.722471,40.770188 C 83.840124,41.982567 84.130477,42.305216 86.453555,43.967748 L 98.06919,22.008991 L 89.618488,17.180021 L 84.300096,25.793858 C 81.162627,24.515082 77.924854,23.674387 74.674786,23.248861 L 74.283249,13.1015 z"
     id="path51624"
     style="fill:#ffffff" />
</svg>
