/* XPM */
static char *ceni[] = {
/* columns rows colors chars-per-pixel */
"32 32 180 2",
"   c black",
".  c #070707",
"X  c #090909",
"o  c #1B1B1B",
"O  c #1E1E1E",
"+  c gray12",
"@  c #202020",
"#  c gray13",
"$  c #222222",
"%  c #232323",
"&  c gray14",
"*  c #252525",
"=  c gray15",
"-  c #272727",
";  c #282828",
":  c gray16",
">  c #2A2A2A",
",  c gray17",
"<  c #2C2C2C",
"1  c #2D2D2D",
"2  c gray18",
"3  c #2F2F2F",
"4  c gray19",
"5  c #313131",
"6  c #323232",
"7  c gray20",
"8  c #343434",
"9  c #353535",
"0  c gray21",
"q  c #373737",
"w  c gray22",
"e  c #393939",
"r  c #3A3A3A",
"t  c gray23",
"y  c #3C3C3C",
"u  c gray24",
"i  c #3E3E3E",
"p  c #3F3F3F",
"a  c gray25",
"s  c #414141",
"d  c gray26",
"f  c #434343",
"g  c #444444",
"h  c gray27",
"j  c #464646",
"k  c gray28",
"l  c #484848",
"z  c #494949",
"x  c gray29",
"c  c #4B4B4B",
"v  c #4C4C4C",
"b  c gray30",
"n  c #4E4E4E",
"m  c gray31",
"M  c #505050",
"N  c #515151",
"B  c gray32",
"V  c #535353",
"C  c gray33",
"Z  c #555555",
"A  c #565656",
"S  c gray34",
"D  c #585858",
"F  c gray35",
"G  c #5A5A5A",
"H  c #5B5B5B",
"J  c gray36",
"K  c #5D5D5D",
"L  c gray37",
"P  c #5F5F5F",
"I  c #606060",
"U  c gray38",
"Y  c #626262",
"T  c gray39",
"R  c #646464",
"E  c #656565",
"W  c gray40",
"Q  c #676767",
"!  c #686868",
"~  c DimGray",
"^  c gray42",
"/  c #6C6C6C",
"(  c #6D6D6D",
")  c gray43",
"_  c #6F6F6F",
"`  c gray44",
"'  c #717171",
"]  c #727272",
"[  c gray45",
"{  c #747474",
"}  c gray46",
"|  c #767676",
" . c #777777",
".. c gray47",
"X. c #797979",
"o. c #7B7B7B",
"O. c #7C7C7C",
"+. c gray49",
"@. c #7E7E7E",
"#. c #7F7F7F",
"$. c #808080",
"%. c gray51",
"&. c #838383",
"*. c #848484",
"=. c gray52",
"-. c #868686",
";. c gray53",
":. c #888888",
">. c gray54",
",. c gray55",
"<. c #8D8D8D",
"1. c gray56",
"2. c #909090",
"3. c gray58",
"4. c gray59",
"5. c #979797",
"6. c #9A9A9A",
"7. c #9D9D9D",
"8. c #A0A0A0",
"9. c #A2A2A2",
"0. c gray64",
"q. c #A4A4A4",
"w. c #A5A5A5",
"e. c #A9A9A9",
"r. c #AFAFAF",
"t. c gray69",
"y. c gray70",
"u. c #B4B4B4",
"i. c #B9B9B9",
"p. c gray73",
"a. c #BBBBBB",
"s. c gray74",
"d. c #C0C0C0",
"f. c gray76",
"g. c #C3C3C3",
"h. c gray78",
"j. c gray79",
"k. c #CACACA",
"l. c gray80",
"z. c #CECECE",
"x. c #D2D2D2",
"c. c LightGray",
"v. c gray83",
"b. c #D5D5D5",
"n. c #D8D8D8",
"m. c gray85",
"M. c #DADADA",
"N. c gainsboro",
"B. c #DDDDDD",
"V. c gray87",
"C. c #DFDFDF",
"Z. c gray88",
"A. c #E1E1E1",
"S. c #E2E2E2",
"D. c gray89",
"F. c gray90",
"G. c #E6E6E6",
"H. c #E7E7E7",
"J. c gray91",
"K. c #E9E9E9",
"L. c #EAEAEA",
"P. c gray92",
"I. c gray93",
"U. c #EEEEEE",
"Y. c #EFEFEF",
"T. c gray94",
"R. c gray95",
"E. c #F3F3F3",
"W. c gray96",
"Q. c #F6F6F6",
"!. c gray97",
"~. c #F8F8F8",
"^. c #F9F9F9",
"/. c gray98",
"(. c #FBFBFB",
"). c gray99",
"_. c #FDFDFD",
"`. c #FEFEFE",
"'. c gray100",
"]. c None",
/* pixels */
"].].].].0 r p j v B Z D J P Y E ~ / _ ] | X.O.#.&.O.( H ].].].].",
"].].].5 9 i a a e 2 % @ # # # # # # # # # @ % 2 e x S ` Y ].].].",
"].].< 8 a a p 0 2 7 y f l M F R R F M k a y 9 1 : 8 i d P D ].].",
"].< , p h F R R ^ [  .+.%.>.2.5.M.S.s.:.&.o.| ] ^ U N d s K p ].",
"]., w a D U I ! ) [ ..9.r.:.,.1.W.'.x.;.%.O.i.%.( ! I n y c g ].",
"].; u i J J Y W / ` f.'.~.1.=.<.~.'.M.*.@.e.'./.3.W U F 1 s j ].",
"].* a q C H P R ! ^ 6.'.'.D.Z._.'.'.'.^.n.E.'.Q.' R P G - 5 g ].",
"].* q 1 V A H P R Q ^ D.'.'.'.'.'.'.'.'.'.'.'.r.T L H A 3 @ s ].",
"].= > 5 n B Z w._ U q.`.'.'.'.'.'.'.'.'.'.'.T.W K G C B 7 # u ].",
"].- @ 8 l v -.'./.k.`.'.'.'.'.m.p.r.a.I.'.'.8.G S C M v 0 # r ].",
"].; # 9 f j t.'.'.'.'.'.'.V.%.L L L K J =.x.D C M v x h q # 0 ].",
"].: # 8 u a g O.Y.'.'.'.G.Y A A A A A C V M n v z j f a q @ 7 ].",
"]., # 5 0 e u a J.'.'.'.! b b b b b b b v z k h d a u e 9 @ 4 ].",
"].< # * 3 6 9 V '.'.'.A.h g g g g g g g h d a i y w 9 6 = # < ].",
"].1 # # % u.b.H.'.'.'.t.y y r r r r t y y t e q 8 5 1 & # # : ].",
"].2 # # # B.'.'.'.'.'.&.9 7 5 5 4 5 5 7 9 9 5 4 : * # # # # * ].",
"].3 # # # t.c.F.'.'.'.0.> ; ; ; * - - : : : ; * & % $ $ # # $ ].",
"].4 # # $ $ % a '.'.'.S.= & = : > : = & = ; = * * & % $ $ # + ].",
"].5 # # $ $ % & C.'.'.'.m 5 w p s p w 5 : : - = * & % $ $ # O ].",
"].7 # $ $ $ % T L.'.'.'.v.b z A J A x p 9 > - = * * % $ $ $ O ].",
"].8 # $ % % 4.'.'.'.'.'.'.L.$.~ o.^ F n #.z.3 = * * & % % $ O ].",
"].9 # $ % % H '.(.u._.'.'.'.'.P.h.d.g.R.'.'.<.= * * & % % $ O ].",
"].0 # # $ % & -.g =  .).'.'.'.'.'.'.'.'.'.'.R.9 * * & % $ # O ].",
"].q @ # $ % & & * * 2 b.'.'.'.'.'.'.'.'.'.'.'.7.* & & % $ # O ].",
"].w 1 # # % % & * * ^ '.'.N.l.!.'.'.'.K.y.A.'.^.p & % % # # + ].",
"].0 r @ # $ $ & & * 1._./.R b C Y.'.j.k i Q '.U.L & $ $ # + $ ].",
"].& s 6 @ # $ % % & > S *.a k x F.'.d.a r 6 } 6 % % $ # @ # o ].",
"].  t h 1 # # $ % & - 2 0 t a f w.i.,.t 9 , * & % $ # $ ; %   ].",
"].].X a n e ; # $ $ & & * ; > 1 1 , : * & & & $ $ > 3 8 * . ].].",
"].].].  ; j N H L Y E ! ^ _ ] } ..O.#.%.=.%.o.{ ( B r O   ].].].",
"].].].].                                                ].].].].",
"].].].].].].].].].].].].].].].].].].].].].].].].].].].].].].].]."
};
