/* XPM */
static char *ceni-16[] = {
/* columns rows colors chars-per-pixel */
"16 16 212 2",
"   c gray10",
".  c #1B1B1B",
"X  c gray11",
"o  c #1D1D1D",
"O  c gray12",
"+  c gray13",
"@  c #222222",
"#  c #232323",
"$  c #252525",
"%  c gray15",
"&  c #272727",
"*  c #27292A",
"=  c #282828",
"-  c #2A2A2A",
";  c gray17",
":  c #2B2C2C",
">  c #2C2C2C",
",  c #2F2F2F",
"<  c #2B2F30",
"1  c gray19",
"2  c #313131",
"3  c #353536",
"4  c #373737",
"5  c #32393B",
"6  c #373A3B",
"7  c #393939",
"8  c gray23",
"9  c #004D75",
"0  c #00517B",
"q  c #00537E",
"w  c #06527A",
"e  c #30454C",
"r  c #3C4449",
"t  c #3A494E",
"y  c #3E494D",
"u  c #306078",
"i  c gray25",
"p  c #484947",
"a  c #4E4E4C",
"s  c #50504E",
"d  c #55555B",
"f  c #565658",
"g  c #555858",
"h  c gray35",
"j  c #5C5F5E",
"k  c #5B5B67",
"l  c #5F7379",
"z  c #646464",
"x  c #646766",
"c  c #62626D",
"v  c #696B69",
"b  c #6C6C73",
"n  c #627075",
"m  c #6A7072",
"M  c #75757E",
"N  c #70797C",
"B  c #005480",
"V  c #035681",
"C  c #105F88",
"Z  c #226587",
"A  c #2E6282",
"S  c #267196",
"D  c #297196",
"F  c #3F6B84",
"G  c #417D9B",
"H  c #587C89",
"J  c #607D84",
"K  c #6B7780",
"L  c #777783",
"P  c #4284A3",
"I  c #5691AF",
"U  c #5C96B1",
"Y  c #7F838D",
"T  c #778C92",
"R  c #758F98",
"E  c #6499B2",
"W  c #709DAD",
"Q  c #7994A0",
"!  c #64A1BA",
"~  c #64A2BD",
"^  c #66A5BF",
"/  c #69A0B9",
"(  c #79A4B6",
")  c #7FB0C5",
"_  c #7FB4C7",
"`  c #B37175",
"'  c #DA2727",
"]  c #84888A",
"[  c #898B8D",
"{  c #858F97",
"}  c #898992",
"|  c #8B9194",
" . c #8E9092",
".. c #8D969A",
"X. c #949B9D",
"o. c #9597A7",
"O. c #929CA0",
"+. c #959EA2",
"@. c #9898A3",
"#. c #9A9DA5",
"$. c #89ABB6",
"%. c #90A3A8",
"&. c #90A3A9",
"*. c #99A3A6",
"=. c #98A3AA",
"-. c #9CA6A8",
";. c #9EA7AA",
":. c #95ACB9",
">. c #A0A0A4",
",. c #A5A5AD",
"<. c #A4A4AF",
"1. c #A0A8AB",
"2. c #A7A7B2",
"3. c #A7A7BC",
"4. c #A9A9B1",
"5. c #ABABB2",
"6. c #ABB2B5",
"7. c #B2B2BA",
"8. c #83B9CC",
"9. c #85BACC",
"0. c #86BCCF",
"q. c #88B1C0",
"w. c #89B9CC",
"e. c #88BACE",
"r. c #8ABBCE",
"t. c #8BBCCE",
"y. c #8DBDCF",
"u. c #8EBDCF",
"i. c #81BBD0",
"p. c #93BCCB",
"a. c #99B8C3",
"s. c #9EBCC6",
"d. c #A3B9C0",
"f. c #ACBFC6",
"g. c #B5B5C1",
"h. c #B4B5C2",
"j. c #B5B6C3",
"k. c #B8B9C1",
"l. c #BCBCC3",
"z. c #89C7DD",
"x. c #8BC9DF",
"c. c #8DC8DD",
"v. c #90C3D4",
"b. c #93C4D3",
"n. c #96C1D1",
"m. c #94C6D6",
"M. c #96C7D7",
"N. c #91C7D9",
"B. c #99C0D1",
"V. c #98C8D7",
"C. c #9CC8D8",
"Z. c #82CBE6",
"A. c #85C9E0",
"S. c #86CAE3",
"D. c #89C9E0",
"F. c #A1CDDB",
"G. c #A6D0DD",
"H. c #A7D0DD",
"J. c #ABD2DF",
"K. c #ACD0DE",
"L. c #ACD2DE",
"P. c #ACD3DF",
"I. c #B5CCD4",
"U. c #B1CFDE",
"Y. c #B9CFD5",
"T. c #B0D1DB",
"R. c #B1D2DE",
"E. c #B8D1DA",
"W. c #AFD5E1",
"Q. c #B5D0E3",
"!. c #B4D7E2",
"~. c #B7D8E2",
"^. c #BCD2E5",
"/. c #B9DAE4",
"(. c #BBDBE5",
"). c #BCD9E3",
"_. c #BDDCE6",
"`. c #BEDDE6",
"'. c #D38487",
"]. c #D2989B",
"[. c #D5B5BB",
"{. c #E48E90",
"}. c #C3C3D1",
"|. c #CECED8",
" X c #CED0D5",
".X c #D0D0D8",
"XX c #D0D3D9",
"oX c #D3D5D9",
"OX c #D7DADE",
"+X c #D9D9DC",
"@X c #C0DDE7",
"#X c #C2DEE8",
"$X c #C3DFE8",
"%X c #DCDCE2",
"&X c #DEDEE6",
"*X c #C5E0E9",
"=X c #C6E1E9",
"-X c #C7E0E9",
";X c #C7E1E9",
":X c #CAE3EB",
">X c #CBE3EB",
",X c #CFE5EC",
"<X c #D0E6ED",
"1X c #D3E8EE",
"2X c #D4E8EF",
"3X c #E0E0E4",
"4X c #E4E4EA",
"5X c #EBEBEF",
"6X c #F1F1F6",
"7X c #F9F9FA",
"8X c gray100",
"9X c None",
/* pixels */
"9XS U E D A w B B B B B B B 9X9X",
"w.).1X,X:X-X=XW.n._ / I P D B C ",
"R.2X<X>X-X@X_.~.!.W.J.H.F.u.B B ",
"-X].{.[.%.N n T a.P.H.F.V.u.B B ",
">X` ' '.z . . O < l R.Q.C.r.B B ",
"-XY.E.I.h O + + + y f.6X^.r.B B ",
"$XX.. * + % % ; % t 0.p.B.r.0 B ",
"`.1.. + % ; , 1 < > 6 r Q 9.9 B ",
"`.-.O # ; 1 4 7 8 3 .X5..X:.A q ",
"(.-.. + < p a s d g.%X@.7.8XG 9X",
"~.*.. ; g j x v b 3.,.d M } 4X,.",
"R.d.+...|  .[ ] L }.>.o H ] 4X,.",
"s.L.M.m.c.A.i.q.{ .XoXm H #.3X7.",
"8X$.b.m.N.c.S.Z.( #.2XOX.X7.g.2.",
"9X9XR v.8.W _ z.c.%.6.%Xk.o.k c ",
"9X9X9X9X9Xi 5 e ^ ~ E +.u M 9X9X"
};
