/* XPM */
static char *ceni___[] = {
/* columns rows colors chars-per-pixel */
"16 16 112 2",
"   c black",
".  c #101010",
"X  c #161616",
"o  c gray9",
"O  c gray10",
"+  c #1B1B1B",
"@  c #1E1E1E",
"#  c gray13",
"$  c #222222",
"%  c #232323",
"&  c gray14",
"*  c #252525",
"=  c gray15",
"-  c #272727",
";  c #282828",
":  c gray16",
">  c #2A2A2A",
",  c gray17",
"<  c #2C2C2C",
"1  c #2D2D2D",
"2  c gray18",
"3  c #2F2F2F",
"4  c gray19",
"5  c #323232",
"6  c gray20",
"7  c #343434",
"8  c #353535",
"9  c gray22",
"0  c #393939",
"q  c #3A3A3A",
"w  c gray23",
"e  c #3C3C3C",
"r  c #3F3F3F",
"t  c gray25",
"y  c #414141",
"u  c gray26",
"i  c #434343",
"p  c #444444",
"a  c gray27",
"s  c #464646",
"d  c gray28",
"f  c #484848",
"g  c gray29",
"h  c #4B4B4B",
"j  c #4C4C4C",
"k  c gray30",
"l  c #4E4E4E",
"z  c #505050",
"x  c #515151",
"c  c gray32",
"v  c gray33",
"b  c #555555",
"n  c #565656",
"m  c #585858",
"M  c #5A5A5A",
"N  c gray36",
"B  c #5D5D5D",
"V  c gray37",
"C  c #5F5F5F",
"Z  c #606060",
"A  c gray38",
"S  c gray39",
"D  c #656565",
"F  c #686868",
"G  c DimGray",
"H  c gray43",
"J  c #727272",
"K  c gray46",
"L  c #767676",
"P  c #777777",
"I  c gray47",
"U  c #848484",
"Y  c #8D8D8D",
"T  c gray58",
"R  c #989898",
"E  c #9A9A9A",
"W  c gray61",
"Q  c #A0A0A0",
"!  c gray63",
"~  c #A2A2A2",
"^  c #A5A5A5",
"/  c #AAAAAA",
"(  c #AFAFAF",
")  c gray69",
"_  c gray70",
"`  c #B6B6B6",
"'  c #BBBBBB",
"]  c #BCBCBC",
"[  c #C3C3C3",
"{  c #C5C5C5",
"}  c gray80",
"|  c #CDCDCD",
" . c LightGray",
".. c gray84",
"X. c gray88",
"o. c gray90",
"O. c #E7E7E7",
"+. c #E9E9E9",
"@. c gray93",
"#. c #EFEFEF",
"$. c gray95",
"%. c #F4F4F4",
"&. c #F6F6F6",
"*. c #F8F8F8",
"=. c #F9F9F9",
"-. c gray98",
";. c #FBFBFB",
":. c gray99",
">. c #FDFDFD",
",. c #FEFEFE",
"<. c gray100",
"1. c None",
/* pixels */
"1.1.9 t f f p u a f x N A Z 1.1.",
"1.5 d b h m D J ~ P N c a d b 1.",
"< w S Z H ` ( Y ;._ Y | L M d 9 ",
"; p v C F ' *.&.<.>.$.+.G C * 5 ",
"; 5 l ! ^ O.<.=.#.>.<.R B v , ; ",
"; > i Q :.<.o.I V Z U n z g < $ ",
"= * 8 i =.=.b k k k j d u e = @ ",
"* # L @.<.| e q q w e 0 2 % # + ",
"* # s U <.X.= * # % = = & $ # + ",
"- # $ 6 %.<.S 9 y 9 : - * % $ + ",
", # % ' @.<.,.{ / ) ..t * & % + ",
"3 # $ q 1 E <.<.<.<.<.) * & $ O ",
"$ 4 # % * ] } W :.[ T -.q % $ X ",
"1.r # $ % 7 g d  .K 8 t % % @ 1.",
"1.o q e y a f j z c b l i ; . 1.",
"1.1.1.                    1.1.1."
};
