/* XPM */
static char *ceni[] = {
/* columns rows colors chars-per-pixel */
"32 32 243 2",
"   c black",
".  c #161616",
"X  c #1C1C1C",
"o  c #17232A",
"O  c #18313F",
"+  c #232323",
"@  c #272929",
"#  c #2A2A2A",
"$  c #222E32",
"%  c #282F32",
"&  c #2D3639",
"*  c #323232",
"=  c #35353C",
"-  c #333A3D",
";  c #3A3A3A",
":  c #002E46",
">  c #003652",
",  c #02327C",
"<  c #014668",
"1  c #01486E",
"2  c #014B71",
"3  c #004E78",
"4  c #00507C",
"5  c #3F484B",
"6  c #3D4D54",
"7  c #2F576A",
"8  c #434344",
"9  c #45454B",
"0  c #474949",
"q  c #4B4B4A",
"w  c #4B4E50",
"e  c #4C4D58",
"r  c #4C5051",
"t  c #50514E",
"y  c #525353",
"u  c #54555A",
"i  c #575857",
"p  c #56595B",
"a  c #5C5D5B",
"s  c #595D60",
"d  c #5F605D",
"f  c #4A636C",
"g  c #4E6B76",
"h  c #556367",
"j  c #56656A",
"k  c #5E6162",
"l  c #53707B",
"z  c #5D737B",
"x  c #626463",
"c  c #636669",
"v  c #666968",
"b  c #6A6B6C",
"n  c #6C6C76",
"m  c #6F6F7C",
"M  c #60757B",
"N  c #6F7478",
"B  c #697A7F",
"V  c #71726F",
"C  c #727474",
"Z  c #707179",
"A  c #777B7E",
"S  c #7A7D7C",
"D  c #005480",
"F  c #0C5C86",
"G  c #1B668D",
"H  c #206285",
"J  c #256E94",
"K  c #2F779A",
"L  c #367393",
"P  c #377A9D",
"I  c #567783",
"U  c #587984",
"Y  c #797B83",
"T  c #4586A6",
"R  c #4A86A2",
"E  c #5B92AE",
"W  c #61828F",
"Q  c #6D848C",
"!  c #6A919E",
"~  c #718084",
"^  c #758188",
"/  c #7D8081",
"(  c #758A90",
")  c #7A8C9C",
"_  c #6F94A2",
"`  c #6E9CAD",
"'  c #649BB4",
"]  c #778FA0",
"[  c #6CA2BB",
"{  c #7DA0AC",
"}  c #70A9BE",
"|  c #7EA5B1",
" . c #7BA9BA",
".. c #73A9C0",
"X. c #7BADC3",
"o. c #75B1C8",
"O. c #7DB1C6",
"+. c #79B8CF",
"@. c #7DBED7",
"#. c #7ECCEA",
"$. c #BD0B0B",
"%. c #A24A4C",
"&. c #DA2929",
"*. c red",
"=. c #FF1010",
"-. c #F03131",
";. c #CA3E40",
":. c #D65556",
">. c #DD7779",
",. c #FE5151",
"<. c #E86D6E",
"1. c #F47A7A",
"2. c #818284",
"3. c #83838C",
"4. c #8B8B8B",
"5. c #858592",
"6. c #828F94",
"7. c #86899C",
"8. c #8A8A94",
"9. c #8D8D9B",
"0. c #839094",
"q. c #8E9092",
"w. c #8B919B",
"e. c #929292",
"r. c #93939C",
"t. c #919C9F",
"y. c #859FA6",
"u. c #8B9EA5",
"i. c #9595A9",
"p. c #969DA3",
"a. c #9A9AA2",
"s. c #9E9EB3",
"d. c #8BA0A7",
"f. c #86A4B2",
"g. c #85A8B7",
"h. c #84AEBC",
"j. c #88A6B5",
"k. c #8BAEBB",
"l. c #9FA0A9",
"z. c #93ABB2",
"x. c #9BAAB4",
"c. c #92B2BC",
"v. c #9CB0B7",
"b. c #A4A6A7",
"n. c #A2A6AC",
"m. c #A6AAAC",
"M. c #A8A9AA",
"N. c #A4A4B2",
"B. c #A6A6BC",
"V. c #AAACB3",
"C. c #ABABBC",
"Z. c #A2B7BE",
"A. c #ACB5B7",
"S. c #AEB8BC",
"D. c #B3B3B3",
"F. c #B3B5BB",
"G. c #B7BCBE",
"H. c #BABABB",
"J. c #81B2C5",
"K. c #84B5C8",
"L. c #83BACE",
"P. c #89B6C9",
"I. c #8CB8C6",
"U. c #8BB9CC",
"Y. c #90B2C1",
"T. c #97BACC",
"R. c #9DB9C2",
"E. c #9CBBCA",
"W. c #AFAFC3",
"Q. c #A4B7C3",
"!. c #A7BDC8",
"~. c #B2B2C4",
"^. c #BBBBC4",
"/. c #B9B9C9",
"(. c #86C2D7",
"). c #84C3DC",
"_. c #88C0D3",
"`. c #8DC6DA",
"'. c #8CC8DD",
"]. c #93C5D5",
"[. c #91C6D8",
"{. c #9DC5D5",
"}. c #9BC9D8",
"|. c #83C7E0",
" X c #84CAE3",
".X c #80CCE8",
"XX c #88C9E0",
"oX c #AFC4CB",
"OX c #A5C6D3",
"+X c #A2C8D7",
"@X c #A3CDDB",
"#X c #A9C7D1",
"$X c #A9CEDB",
"%X c #A6D0DD",
"&X c #AAD1DE",
"*X c #B3C5CB",
"=X c #BEC1C4",
"-X c #B8C7CE",
";X c #BCC8CE",
":X c #B5CDD4",
">X c #B9CAD0",
",X c #B3D1DA",
"<X c #BDD3DA",
"1X c #AFCBE0",
"2X c #ADD3E0",
"3X c #B2D6E1",
"4X c #B6D8E3",
"5X c #BBDAE4",
"6X c #C99498",
"7X c #CBB2B7",
"8X c #C1C2C4",
"9X c #C1C1CC",
"0X c #C6C6D2",
"qX c #C1CCD3",
"wX c #CACBD4",
"eX c #CECED8",
"rX c #CDD7DE",
"tX c #D4D4D5",
"yX c #D5D5DD",
"uX c #D5D8DC",
"iX c #D9D9DF",
"pX c #C4D2E8",
"aX c #C1DDE6",
"sX c #C3DFE8",
"dX c #CCD4E4",
"fX c #CEDEE5",
"gX c #D6D6E0",
"hX c #D1D7EC",
"jX c #DBDBE2",
"kX c #C5E0E9",
"lX c #CBE3EB",
"zX c #D1E6ED",
"xX c #D4E8EE",
"cX c #DFE0E0",
"vX c #D7EAF0",
"bX c #E0E0E5",
"nX c #E3E3E9",
"mX c #EAEAED",
"MX c #EDEDF1",
"NX c #F3F3F5",
"BX c #F3F3FB",
"VX c #FEFEFE",
"CX c None",
/* pixels */
"CXCXCXCXD 4 4 3 1 1 2 2 3 4 D D D D CXCXCXCXCXCXCXCXCXCXCXCXCXCX",
"CXCXCXK [ U.+X+XK.[ T J F , : D > 1 2 3 3 4 D D D D D CXCXCXCXCX",
"CXCX..sXxXxXxXlXlXlXkXsXkX4X@XU.X.' R L G F D D D D D D D D G CX",
"CXJ.xXxXxXzXzXlXlXlXkXsXaX5X5X5X4X,X3X3X2X$X{.U.X.' E P D E F CX",
"}.sXxXxXzXzXlXlXkXkXkXaXsX5X5X4X4X3X3X2X2X&X%X%X@X@X}.P.F D D CX",
"3XvXxXxXzXlXlXlXkXkXaXaX5X5X5X5X3X3X2X2X&X&X%X%X@X}.].P.D D D CX",
"5XxXfX6X7XrXlXsXkXkX( d.R.,X4X,X3X3X2X&X&X%X%X%X}.].].U.D D D CX",
"aXxXqX-.,.1.>.sXc ~ v X X X # 8 j $X&X&X2X%X}.}.].].].U.D D D CX",
"sXzX>X$.=.=.<.:X4.X X X X X X X X j ^ Y.}.1X}.T.].].].P.D 4 D CX",
"sXlX<X%.&.&.:.,XA.. X X X X X + X X o M T.dXpX5X1X].[.P.D 3 D CX",
"aXzXlXlXkXkX*X:XM.X + + + + + + + + X z Y.VXVXBXhX].].K.4 3 D CX",
"5XlXaX6.Z.:XkXoX4.+ X + + + + + + + + l h.b.tXVXdX].].K.D 2 D CX",
"aXlX*Xq.X X + ; + + + @ @ @ + # + + + z (.g.c.!.Q.].].O.3 2 D CX",
"5XsXqXD.X X X + + + @ # # # # # # # @ g |.'.'.'.[.].].O.3 2 D CX",
"5XlX<XF.X X + + @ @ # # # * * * * # # @ @ - e f W [.].O.3 1 D CX",
"5XsX<XH.X X + o @ # # * * * * * * * * # 8 ; o w a.].].X.2 2 D CX",
",XkXaXH.X X + + # # * * * ; ; ; * ; * ; nXC.X 3.VXT.].X.< 2 4 CX",
"5XaXaXG.X + + @ # * * * ; ; ; 8 ; 8 ; @ ~.mXbXMXBX0Xf.bXx.1 D CX",
"3XaXaXH.X + + @ # * ; t 0 t q q ; 9.^.r.bXmXmXmXNXBXVXVX) 2 D CX",
"4X5X<XH.X X + @ # ; a q x t x r a u C.yXjXn.5.Y Z r.mXVX] 2 O CX",
",X5X5X=XX X + @ q x q b i C d V p a s.W.F.r.c y u n n NXNXeXiX  ",
",X5X4XH.. X + r d p v x C b S v i.5.C./.F.u 8 X %  .n 8.NXNXwXZ ",
"#X4X4Xm.D.q.q./ Y k C c A C 2.c s.W.~.jXH.0 X . % `.Y Y mXyX    ",
"R.4X3X3X&XR.z.x.A.=X8XH.M.b.2.w.i Z 9XnX8XX X X % `.J.Y jXmXr.b ",
"t.#X,X3X$X].].`.'.XXXX).K.k.v.S.=Xr.tXiXiXC # X % [.c.9.iXmXMX^.",
"CXd.&X@X[.].].[.`.'.XX X X.X#..Xj.yXjXiXNXtXn./ w [.n.V.bXwXr.r.",
"CXb d._.].].].].[.'.XX|.XX.X.X.X` V.p.nXnXmXuX;X-X^.9X0XjX9.    ",
"CXCXd ( I.].].].].[.'.'.XXXXXX|.@.+.} G.MXmXmXmXMXbX/.B.W.0XV.CX",
"CXCXCX  B f { ].].].[.'.'.'.'.|.'.'.O.cXmXmXnXiXwX9X/.7.e i.n   ",
"CXCXCXCXCX  r j ].].P.U !  ._.`.'.'.J.S.z.{ 8XbXM.s.~.Y   =   CX",
"CXCXCXCXCXCXCXCXCXCXCX@ . & $ L.o.o.l ! | _ M.jX7 o C.9.  CXCXCX",
"CXCXCXCXCXCXCXCXCXCXCXCXCXCXCXCXCXCX8 ; ; * i 2.  CX0   CXCXCXCX"
};
