/* XPM */
static char *ceni-16[] = {
/* columns rows colors chars-per-pixel */
"16 16 194 2",
"   c gray10",
".  c #1B1B1B",
"X  c gray11",
"o  c #1D1D1D",
"O  c #1D1D1E",
"+  c #1F1E1D",
"@  c #1E1E1E",
"#  c gray12",
"$  c #2B291D",
"%  c #37341B",
"&  c #202020",
"*  c gray13",
"=  c #232323",
"-  c #202425",
";  c gray14",
":  c #252525",
">  c #242626",
",  c #272727",
"<  c #282B24",
"1  c #2C2B26",
"2  c #282828",
"3  c gray17",
"4  c gray18",
"5  c #262D30",
"6  c #39382F",
"7  c #3C3A2E",
"8  c gray19",
"9  c #323232",
"0  c #004366",
"q  c #004E76",
"w  c #024C74",
"e  c #024D74",
"r  c #034F75",
"t  c #015179",
"y  c #035079",
"u  c #00527C",
"i  c #00527D",
"p  c #05547F",
"a  c #10587E",
"s  c #1B5E7F",
"d  c #3E484B",
"f  c #3C4A4F",
"g  c #3B4D53",
"h  c #453F1E",
"j  c #484426",
"k  c #464437",
"l  c #4D4935",
"z  c #4D4B3B",
"x  c #5D5522",
"c  c #5D5627",
"v  c #575231",
"b  c #65603C",
"n  c #686136",
"m  c #6D6530",
"M  c #515758",
"N  c #586367",
"B  c #6C6740",
"V  c #6A6A6A",
"C  c #6A6B6B",
"Z  c gray42",
"A  c #6C6C6C",
"S  c #005480",
"D  c #075985",
"F  c #085E8C",
"G  c #105F88",
"H  c #0A628A",
"J  c #22688A",
"K  c #347594",
"L  c #377B9E",
"P  c #367E9E",
"I  c #3D7D9D",
"U  c #46768B",
"Y  c #6C7E84",
"T  c #747D81",
"R  c #3B81A2",
"E  c #3D81A0",
"W  c #3D82A2",
"Q  c #50859E",
"!  c #4083A4",
"~  c #4386A5",
"^  c #4684A1",
"/  c #4688A7",
"(  c #4888A8",
")  c #4989A8",
"_  c #4B8BA9",
"`  c #4C8BA9",
"'  c #4D8CA8",
"]  c #5B97B1",
"[  c #708389",
"{  c #7D8C90",
"}  c #70908D",
"|  c #6B9AAB",
" . c #619FB8",
".. c #64A3BD",
"X. c #65A2BC",
"o. c #70A7BE",
"O. c #77A7B8",
"+. c #6FACC4",
"@. c #B1191A",
"#. c #857C43",
"$. c #D03C3C",
"%. c #CD6466",
"&. c #8D865B",
"*. c #8B8665",
"=. c #8E8C70",
"-. c #8E927C",
";. c #E0E002",
":. c #E3E55E",
">. c #819293",
",. c #8B9396",
"<. c #8E9792",
"1. c #949D9F",
"2. c #8198A0",
"3. c #90B48F",
"4. c #9BBA95",
"5. c #87A4AD",
"6. c #89A9AD",
"7. c #8BAEB7",
"8. c #85B4AC",
"9. c #90A6A2",
"0. c #97A4A8",
"q. c #98A0A3",
"w. c #81B3C7",
"e. c #82B5C8",
"r. c #86B6CA",
"t. c #83B9CD",
"y. c #8EB9C7",
"u. c #89BDCF",
"i. c #AABFC6",
"p. c #B4CB86",
"a. c #86C0D5",
"s. c #84C4DC",
"d. c #8FC7DB",
"f. c #8BC8DE",
"g. c #8CC8DD",
"h. c #8DC8DC",
"j. c #8CC8DE",
"k. c #8EC8DC",
"l. c #91C1D1",
"z. c #90C3D3",
"x. c #94C6D6",
"c. c #90C7DA",
"v. c #92C6D8",
"b. c #9DC7D6",
"n. c #9BCAD9",
"m. c #9DCBDA",
"M. c #82CCE7",
"N. c #84CBE5",
"B. c #88C9E1",
"V. c #89C9E0",
"C. c #A1C3CD",
"Z. c #AEC2C9",
"A. c #A5C9D5",
"S. c #A1CDDB",
"D. c #A4CFDC",
"F. c #A5CFDD",
"G. c #A9D1DE",
"H. c #AAD2DE",
"J. c #ACD0DC",
"K. c #ADD2DE",
"L. c #AFD3DF",
"P. c #B8D2DA",
"I. c #ADD4E0",
"U. c #AED4E0",
"Y. c #B0D5E1",
"T. c #B2D5E1",
"R. c #B2D6E1",
"E. c #B2D6E2",
"W. c #B4D7E2",
"Q. c #B5D8E3",
"!. c #B6D8E3",
"~. c #B7D9E3",
"^. c #B9DAE4",
"/. c #BBDBE5",
"(. c #BDDCE6",
"). c #BFDDE6",
"_. c #C8878A",
"`. c #C1D9E0",
"'. c #C0DDE7",
"]. c #C3DDE6",
"[. c #C2DFE7",
"{. c #C5DAE1",
"}. c #CADEE4",
"|. c #C5E0E9",
" X c #C8E2EA",
".X c #C9E2EA",
"XX c #CCE3EA",
"oX c #CDE4EC",
"OX c #CEE5EC",
"+X c #CFE5EC",
"@X c #D1E6ED",
"#X c #D2E7EE",
"$X c gray100",
"%X c None",
/* pixels */
"%X%XP ' ^ J a t S S S S S S %X%X",
"%Xw.'.@X+X.X(.E.b.r.o.] ( L F S ",
"S.+X@X+X.X|.).(.!.E.U.H.D.n.' p ",
"E.}.%._.Z.{ N Y 2.K.H.F.n.x.( p ",
"!.{.@.$.,.        d 6.p.4.x.( p ",
"W.XXi.P.1.          } ;.:.x./ q ",
"E.`.V @ > @ + + @   | 8.3.x.~ e ",
"E.'.V . @ > , , - $ @ 5 g v.W e ",
"K.|.Z X = 4 9 9 3 , =   - d.W q ",
"K.(.A X > 7 l z k 9 1 + - k.W y ",
"J.^.Z   h c n b b v j % < k.W p ",
"C.W.0.<.-.=.*.&.#.m x $ - d.I D ",
"q.A.m.x.d.V.s.e.7.9.>.T M d.K F ",
"%X5.y.x.x.k.B.N.M.M.N.V.k.l.s H ",
"%X%X[ x.u.r.O.a.V.V.V.c.z.Q p %X",
"%X%X%X%X%X%X= g +.....] U 0 %X%X"
};
