/* XPM */
static char *ceni[] = {
/* columns rows colors chars-per-pixel */
"32 32 246 2",
"   c black",
".  c #161616",
"X  c #1B1B1B",
"o  c #25231B",
"O  c #363217",
"+  c #3A361C",
"@  c #232323",
"#  c #282827",
"$  c #2A2A2A",
"%  c #222E32",
"&  c #282F32",
"*  c #2B3231",
"=  c #2B3538",
"-  c #312F23",
";  c #343221",
":  c #323232",
">  c #35393B",
",  c #3A3934",
"<  c #383838",
"1  c #002E46",
"2  c #003652",
"3  c #02327C",
"4  c #01496D",
"5  c #014B72",
"6  c #004E78",
"7  c #01517B",
"8  c #19597A",
"9  c #3A4D54",
"0  c #35657C",
"q  c #443E16",
"w  c #403B1B",
"e  c #433F24",
"r  c #403E30",
"t  c #49431B",
"y  c #534B1B",
"u  c #58501C",
"i  c #46422B",
"p  c #484427",
"a  c #4D4825",
"s  c #43423B",
"d  c #49473E",
"f  c #4F4C34",
"g  c #4C493B",
"h  c #504C35",
"j  c #514E3D",
"k  c #575129",
"l  c #5B5423",
"z  c #5F582C",
"x  c #555134",
"c  c #595435",
"v  c #62591B",
"b  c #615A2E",
"n  c #685F25",
"m  c #685F28",
"M  c #635D39",
"N  c #7A6D1A",
"B  c #6D642A",
"V  c #676032",
"C  c #6A6333",
"Z  c #6B6539",
"A  c #796D22",
"S  c #706835",
"D  c #776F3C",
"F  c #7A7137",
"G  c #7B7239",
"H  c #424242",
"J  c #40494C",
"K  c #4F4D43",
"L  c #4B4D4D",
"P  c #4B4F51",
"I  c #5C5944",
"U  c #4A646D",
"Y  c #4B6A76",
"T  c #556367",
"R  c #56666B",
"E  c #52717C",
"W  c #5D747C",
"Q  c #6C6743",
"!  c #736D46",
"~  c #7B7441",
"^  c #7F7951",
"/  c #616363",
"(  c #616768",
")  c #6C6C6C",
"_  c #60757B",
"`  c #6A797E",
"'  c #005480",
"]  c #075986",
"[  c #0C5C85",
"{  c #085D89",
"}  c #07608D",
"|  c #09608E",
" . c #096192",
".. c #18648C",
"X. c #1F6B91",
"o. c #206285",
"O. c #297498",
"+. c #357393",
"@. c #34799C",
"#. c #44768F",
"$. c #437B96",
"%. c #577783",
"&. c #597984",
"*. c #557F91",
"=. c #43819F",
"-. c #5E8392",
";. c #5390AC",
":. c #5B92AC",
">. c #5495B0",
",. c #6E848C",
"<. c #638592",
"1. c #69929F",
"2. c #718084",
"3. c #7D8081",
"4. c #768A90",
"5. c #6D93A2",
"6. c #679EB7",
"7. c #609FB8",
"8. c #759DAB",
"9. c #7CA28C",
"0. c #7EA79B",
"q. c #6FA5BD",
"w. c #6DA8BE",
"e. c #72A5BB",
"r. c #77AABE",
"t. c #7EA4B1",
"y. c #7AA9BA",
"u. c #75ABC1",
"i. c #79AEC4",
"p. c #75B0C8",
"a. c #7DB1C6",
"s. c #7ECCEA",
"d. c #B80000",
"f. c #A43B3D",
"g. c #B22627",
"h. c #8C7E23",
"j. c #817632",
"k. c #857A34",
"l. c #807845",
"z. c #AE5557",
"x. c #C81111",
"c. c #C43D3F",
"v. c red",
"b. c #FF1010",
"n. c #EB2626",
"m. c #DC6061",
"M. c #FD5252",
"N. c #ED7575",
"B. c #B2B104",
"V. c #8D8344",
"C. c #8B886B",
"Z. c #918D70",
"A. c #90A14E",
"S. c #97AD5A",
"D. c #8BA36B",
"F. c #8AA872",
"G. c #A19543",
"H. c #A6A077",
"J. c #B7C478",
"K. c #D5D500",
"L. c #F8F800",
"P. c #FFFF09",
"I. c #C4C943",
"U. c #D1D653",
"Y. c #C8CF7B",
"T. c #DBDF7A",
"R. c #FFFF5D",
"E. c #8A8A8A",
"W. c #838F94",
"Q. c #839094",
"!. c #959388",
"~. c #929292",
"^. c #839BA3",
"/. c #8B9FA5",
"(. c #9198A0",
"). c #80A597",
"_. c #89A699",
"`. c #8DADB9",
"'. c #94ACB4",
"]. c #9BADB4",
"[. c #94B3BD",
"{. c #AB8286",
"}. c #A6A391",
"|. c #A0A8AA",
" X c #A9A1A6",
".X c #A8A9A9",
"XX c #A3B7BE",
"oX c #ABB5B7",
"OX c #ACB6B8",
"+X c #BAB7A5",
"@X c #B8B6AB",
"#X c gray70",
"$X c #BBBBBB",
"%X c #84B3C5",
"&X c #84B5C9",
"*X c #82BACD",
"=X c #8AB6C4",
"-X c #88B7CA",
";X c #8CB8C6",
":X c #8BB9CB",
">X c #8FBDD0",
",X c #98B7C2",
"<X c #9FB8C1",
"1X c #9EBFCB",
"2X c #BEC2BE",
"3X c #86C2D4",
"4X c #82C4DD",
"5X c #88C0D3",
"6X c #8EC7DB",
"7X c #8CC8DD",
"8X c #93C5D5",
"9X c #90C6D9",
"0X c #99C3D4",
"qX c #9BC9D8",
"wX c #84CAE4",
"eX c #80CCE8",
"rX c #88C9E0",
"tX c #A2C2CD",
"yX c #ADC0C7",
"uX c #AFC4CB",
"iX c #A4CEDB",
"pX c #ABCED9",
"aX c #A6D0DD",
"sX c #AAD1DE",
"dX c #B1C8CE",
"fX c #BCC1C0",
"gX c #B4CBD2",
"hX c #BBCFD6",
"jX c #B2D2DC",
"kX c #BED5DB",
"lX c #AED4E0",
"zX c #B2D5E1",
"xX c #B5D8E3",
"cX c #BBDAE4",
"vX c #C0C0B8",
"bX c #C6C6C6",
"nX c #C1DCE5",
"mX c #C2DFE8",
"MX c #CBDFE5",
"NX c #C5E0E8",
"BX c #CBE3EB",
"VX c #D1E6ED",
"CX c #D4E8EE",
"ZX c #D7EAF0",
"AX c gray100",
"SX c None",
/* pixels */
"SXSXSXSXSX' 7 7 6 5 5 5 5 6 6 ' ' ' ' SXSXSXSXSXSXSXSXSXSXSXSXSX",
"SXSXSXSXO.>.e.:X>Xu.;.@.X.[ 3 1 ' 2 4 5 6 6 ' ' ' ' ' ' SXSXSXSX",
"SXSXSX>.sXZXZXBXVXBXBXmXcXxXsX0X&Xe.;.=.+.o.[ ' ' ' ' ' ' ' ' ..",
"SXSXw.BXZXZXBXZXBXBXBXBXmXmXmXcXcXxXxXzXsXiXiX0X-Xr.6.:.@.' :.[ ",
"SX0XxXZXZXCXVXBXBXBXmXmXmXnXcXcXxXxXxXzXsXsXsXsXiXiXiXqX:X[ ' ' ",
"SXiXZXCXVXBXBXBXBXMXmXmXmXnXcXcXxXxXzXzXzXsXsXsXiXiXqX8X:X' ' ' ",
"SXzXZXMX{. XhXBXMXmXmXW./.<XjXxXxXzXzXzXsXsXiXiXiXqX8X8X:X' ' ' ",
"SXxXZXhXn.M.N.z.MX) &.( X . . % 9 T pXpXsXsXiXiXqX8X8X8X:X' ' ' ",
"SXcXZXgXd.v.b.m.gXE.. . X X X X X X ( &.=XiXiXqX9X8X9X0X:X' 7 ' ",
"SXcXVXkXf.g.x.c.gX#XX X X X X . X X X X _ _.I.Y.J.D.8X8X&X' 7 ' ",
"SXcXBXBXBXMXnXuXgX.X. X X X X X . X X X W ).L.P.R.T.8X8X&X' 6 7 ",
"SXcXBXnXW.XXjXcXgXE.X X X X X X X X X X E 0.B.K.L.U.8X8X%X' 5 ' ",
"SXxXBXuXE.X X @ > X X X @ X @ X X X X X E 3X9.F.S.A.8X8Xa.7 5 ' ",
"SXxXBXkX#XX X X X @ @ @ @ @ @ @ @ X X X Y 4XrX7X7X7X8X8Xa.6 5 ' ",
"SXxXBXkX$XX X X @ @ @ # # # # # # @ @ X X @ = 9 U <.8X8Xi.5 4 ' ",
"SXzXmXkX#XX X X @ @ # # $ $ $ $ # # @ @ X X X X X & 8X8Xi.5 5 ' ",
"SXzXmXnX$XX X @ @ # $ $ : : : : $ $ # @ @ X X X X & 9X8Xi.5 5 ' ",
"AXzXmXcX$X. X X @ # : : < < > > : : $ # @ X X X X & 7X7Xu.5 5 ' ",
"AXzXmXcX$X. X @ # $ : : h r g r s , , $ # @ X X . & 7X8Xu.4 6 ' ",
"AXzXcXcX$XX X @ @ $ , b K M K M d c r r - ; o o X : 7X9Xu.4 6 ' ",
"bXjXxXxX$XX X X @ e n h S I D I Z j b r a - w o O & 7X8Xi.4 7 ' ",
"$XpXcXxX$X. X X y v l B Z G ! G Q S c b e y + q X & 7X7Xr.5 ] SX",
"SXtXxXxX.X#X~.Z.^ j.b N B k.l.V.~ F M n k u t X X & 7X8Xr.4 ] SX",
"SX[.xXxXzXpX,X'.].oX$XvX@X}.H.C.G.Z h.k N q @ X X & 7X8Xr.5 [ SX",
"SX(.1XjXsXqX8X8X9X7X7XwX4X-X`.[.oX$X$X+X!.) L $ X & 8X8Xe.5 | SX",
"SXSX^.iXqX8X8X8X9X9X7XrXwXeXeXeXs.s.s.wX%X`.].|.&.P 8X8X:.5  .SX",
"SXSX) ^.8X8X8X8X8X9X7X7X7XwXwXeXeXeXeXwXwXrXwX7XqX9XqX8X$.5 | SX",
"SXSXSX/ 4.;X8X8X8X9X9X7X7XrXrXwXwXwXrXwXwX7X7X7X0X9X8X%X8 7 7 SX",
"SXSXSXSX  ` U t.8X8X8X9X6X7X7X7X7X7X7X7X7X7X6X8X8X8X8X#.7 ' SXSX",
"SXSXSXSXSXSX  L R 8X5X-X&.1.r.5X7X7X7X7X7X5X8X8X8X=X*.6 ' SXSXSX",
"SXSXSXSXSXSXSXSXSXSXSXSX# . = % a.p.p.%.5.`.8.5.-.0 [ SXSXSXSXSX",
"SXSXSXSXSXSXSXSXSXSXSXSXSXSXSXSXSXSXSXH > > < L r SXSXSXSXSXSXSX"
};
